<svg width="1440" height="365" viewBox="0 0 1440 365" xmlns="http://www.w3.org/2000/svg" xmlns:xlink="http://www.w3.org/1999/xlink"><defs><path id="cloudspath-1" d="M0 0h1440v365H0z"/></defs><g id="Page-1" fill="none" fill-rule="evenodd"><g id="Homepage-Copy-3" transform="translate(0 -6171)"><g id="Group-34" transform="translate(0 6171)"><mask id="cloudsmask-2" fill="#fff"><use xlink:href="#cloudspath-1"/></mask><use id="Mask" fill="#D8D8D8" xlink:href="#cloudspath-1"/><g mask="url(#cloudsmask-2)"><g transform="translate(-205)"><path id="Rectangle-4-Copy" fill="#AFE7FF" d="M201 0h1444v464H201z"/><path d="M60.076 890.604c995.578-59.842 1400.95-71.351 1216.115-34.525-277.252 55.226-330.64-49.418-330.64-49.418s124.52 18.855 165.943-70.049c41.428-88.903 175.303-85.022 175.303-85.022 149.45-31.192 182.332-106.367 182.332-106.367 131.313 50.584 275.36-42.629 225.912-135.836-49.448-93.2-167.139-79.074-167.139-79.074-150.011-109.063-330.18-29.19-330.18-29.19-93.438-126.914-271.431-73.525-271.431-73.525-97.706-99.506-212.78-122-296.887-121.994-34.025 0-380.252 9.917-569.328 439.62-45.435 103.257-45.435 218.384 0 345.38z" id="Fill-31-Copy" fill="#FFF" transform="rotate(-4 865.5 498.104)"/></g></g></g></g></g></svg>