<?xml version="1.0" encoding="UTF-8"?>
<svg width="1440px" height="959px" viewBox="0 0 1440 959" version="1.1" xmlns="http://www.w3.org/2000/svg" xmlns:xlink="http://www.w3.org/1999/xlink">
    <!-- Generator: Sketch 50.2 (55047) - http://www.bohemiancoding.com/sketch -->
    <title>roadmap</title>
    <desc>Created with Sketch.</desc>
    <defs>
        <rect id="path-1" x="0" y="0" width="1440" height="959"></rect>
        <linearGradient x1="-21.3126337%" y1="120.085656%" x2="81.4058008%" y2="12.5390758%" id="linearGradient-3">
            <stop stop-color="#EE3135" offset="0%"></stop>
            <stop stop-color="#FBB040" offset="100%"></stop>
        </linearGradient>
        <rect id="path-4" x="0" y="0" width="1440" height="959"></rect>
        <rect id="path-6" x="0" y="0" width="1440" height="959"></rect>
        <rect id="path-8" x="0" y="0" width="1440" height="959"></rect>
    </defs>
    <g id="Page-1" stroke="none" stroke-width="1" fill="none" fill-rule="evenodd">
        <g id="roadmap">
            <g id="Group-5">
                <g id="Rectangle-2-Copy-2" fill-rule="nonzero">
                    <g id="path-1-link" fill="#F5F8FD">
                        <rect id="path-1" x="0" y="0" width="1440" height="959"></rect>
                    </g>
                    <g id="path-1-link" fill="#AFE7FF">
                        <rect id="path-1" x="0" y="0" width="1440" height="959"></rect>
                    </g>
                </g>
                <g id="Path-5-Clipped">
                    <mask id="mask-2" fill="white">
                        <use xlink:href="#path-1"></use>
                    </mask>
                    <g id="roadmappath-3"></g>
                    <path d="M1038,268 C1036,286 1023.10493,317.545415 1014,329 C1004.89507,340.454585 993.458638,346 976,346 C958.541362,346 969.084378,331.565888 942,329 C914.915622,326.434112 937,350 891,358 C845,366 841.982219,347.989772 799,337 C756.017781,326.010228 748.54056,317 692,317 C635.45944,317 620.781493,333.773112 599,337 C577.218507,340.226888 497.500087,349.088974 450,366 C402.499913,382.911026 368.8864,393.368583 362,405 C355.1136,416.631417 399.657972,443.652833 428,499 C456.342028,554.347167 467.437343,605.185595 468,612 C468.562657,618.814405 445.208546,618.102826 437,608 C428.791454,597.897174 458.374653,594.785296 432,569 C405.625347,543.214704 390.828312,553.035391 374,532 C357.171688,510.964609 375.236306,504.396243 366,485 C356.763694,465.603757 344.468314,452.758324 334,448 C323.531686,443.241676 315.482612,458.259497 300,455 C284.517388,451.740503 293.692784,440.211165 264,438 C234.307216,435.788835 237.628506,445.209249 206,448 C174.371494,450.790751 170.60705,434.676827 141,448 C111.39295,461.323173 83.6622099,503.004289 137,532 C190.33779,560.995711 242.281336,568.046583 255,574 C267.718664,579.953417 262.788904,582.429344 255,593 C247.211096,603.570656 238.118297,610.146951 227,612 C215.881703,613.853049 219.013004,600.228229 201,602 C182.986996,603.771771 183.861957,603.412735 166,618 C148.138043,632.587265 146.251381,641.402649 141,651 C135.748619,660.597351 133.647247,663.623944 137,671 C140.352753,678.376056 146.837007,684 156,684 C165.162993,684 153.013317,671 174,671 C194.986683,671 208.275103,684 222,684 C235.724897,684 224.863125,666.048309 245,671 C265.136875,675.951691 279.521002,697.012001 283,699 C286.478998,700.987999 279.971732,686.247029 294,699 C308.028268,711.752971 311.524075,725.643056 316,729 C320.475925,732.356944 329.662486,724.25415 334,729 C338.337514,733.74585 327.830884,748.639477 335,752 C342.169116,755.360523 347.669484,744 366,744 C384.330516,744 368.829666,740.614899 403,751 C437.170334,761.385101 486.597988,789.235709 503,775 C519.402012,760.764291 504.093569,734.71485 521,729 C537.906431,723.28515 567.413316,733.253698 584,744 C600.586684,754.746302 584.593247,763.104305 592,775 C599.406753,786.895695 611.207021,786.804356 617,797 C622.792979,807.195644 599.498,812.5826 617,819 C634.502,825.4174 657.078588,813.67218 677,819 C696.921412,824.32782 680.789625,838.253672 703,842 C725.210375,845.746328 750.518462,840.44978 760,833 C769.481538,825.55022 732.184244,817.079498 745,809 C757.815756,800.920502 753.999942,793.070052 806,804 C858.000058,814.929948 875.858787,828.352749 902,842 C928.141213,855.647251 930.213196,864.734074 942,875 C953.786804,885.265926 956.369504,869.986946 964,896 C971.630496,922.013054 911.159628,990.501783 1125,1015 C1338.84037,1039.49822 1291.7488,1209.51619 1479,955 C1666.2512,700.483807 1532.60557,18.6959757 1479,-67 C1439.1605,-130.688992 401.611039,-126.62701 -29,-67 C-177.792587,-46.3965872 -71.8302964,71.829808 -76,72 C-79.0685641,72.1252475 -41.1184787,78.5605648 22.4424349,89.0379425 C30.7804121,90.4123742 35.8153606,138.491573 45,140 C68.2982676,143.82636 61.0012415,223.976944 89,228 C153.779905,237.308027 201.823949,359.261912 283,366 C297.249873,367.182823 334.131268,368.740895 374,358 C462.854255,334.062087 582.988715,284.299814 617,283 C762.095615,277.45486 798.535135,320.479058 867,317 C881.013691,316.287891 945.683994,311.367369 964,317 C990.131434,325.036071 970.520869,343.982372 990,337 C1026.23215,324.012441 1038.26381,265.625686 1038,268 Z" id="Path-5" fill="url(#linearGradient-3)" fill-rule="nonzero" mask="url(#mask-2)"></path>
                </g>
                <g id="Path-2-Clipped">
                    <mask id="mask-5" fill="white">
                        <use xlink:href="#path-4"></use>
                    </mask>
                    <g id="roadmappath-3"></g>
                </g>
                <g id="Path-7-Clipped">
                    <mask id="mask-7" fill="white">
                        <use xlink:href="#path-6"></use>
                    </mask>
                    <g id="roadmappath-3"></g>
                </g>
                <g id="Path-10-Clipped">
                    <mask id="mask-9" fill="white">
                        <use xlink:href="#path-8"></use>
                    </mask>
                    <g id="roadmappath-3"></g>
                </g>
            </g>
        </g>
    </g>
</svg>