<svg width="102" height="111" viewBox="0 0 102 111" xmlns="http://www.w3.org/2000/svg"><defs><linearGradient x1="21.32%" y1="79.404%" y2="100%" id="a"><stop stop-color="#FBB040" offset="0%"/><stop stop-color="#F7941E" offset="100%"/></linearGradient></defs><g fill-rule="nonzero" fill="none"><path d="M57.108 45.152c-5.416 4.756-11.077 7.009-15.754 8.26-1.477 3.755-4.923 6.259-9.108 6.259-5.415 0-9.846-4.506-9.846-10.014 0-5.006 3.692-9.011 8.37-9.762h1.722c1.477 0 7.139-.25 13.046-4.506L35.2 26.126c-1.723-1.501-4.677-1.501-6.4 0L1.723 50.408C.493 51.41 0 52.912 0 54.414v60.33C0 117.496 2.215 120 4.923 120h54.154c2.708 0 4.923-2.253 4.923-5.257v-60.58c0-1.502-.738-3.004-1.723-4.005l-5.17-5.006z" fill="url(#a)" transform="rotate(20 83.199 101.206)"/><path d="M104.67 3.488c.194-1.259-.863-2.707-2.114-2.897-10.882-1.302-14.58 9.58-17.25 17.647-1.539 4.225-2.929 8.77-4.926 9.904-13.048 8.277-24.685 3.244-25.384 2.99-1.4-.51-2.674.09-3.334 1.179-.513 1.408.078 2.687 1.158 3.346l.7.254c3.032 1.104 15.414 4.813 29.1-3.764 3.442-2.202 5.236-7.132 6.968-12.616 3.014-9.005 5.468-15.024 11.81-14.31 1.866.679 3.078-.475 3.272-1.733z" fill="#FFF"/></g></svg>