<svg width="186" height="178" viewBox="0 0 186 178" xmlns="http://www.w3.org/2000/svg" xmlns:xlink="http://www.w3.org/1999/xlink"><defs><path id="a" d="M0 0h186v178H0z"/><path id="c" d="M.602.849h189.389v212.15H.602z"/></defs><g fill="none" fill-rule="evenodd"><mask id="b" fill="#fff"><use xlink:href="#a"/></mask><g mask="url(#b)"><g transform="translate(0 -35)"><mask id="d" fill="#fff"><use xlink:href="#c"/></mask><path d="M157.193 57.973c-1.12 1.778-2.245 3.557-3.352 5.31-.467.74-.929 1.469-1.39 2.207-1.61-.25-3.493-.187-5.554.079.7-1.254 1.39-2.503 2.068-3.746 3.202-1.181 6.014-2.451 8.228-3.85m-12.935 5.437c-.312.925-.625 1.853-.935 2.782-2.183.487-4.54 1.175-7.006 1.99.555-.991 1.106-1.981 1.647-2.964a159.422 159.422 0 0 0 6.294-1.808m4.331-29.354c-4.858 5.138-9.14 15.494-13.173 26.997a250.072 250.072 0 0 0-4.516 1.833c5.73-10.711 10.164-20.62 10.142-27.327.868-.174 1.734-.346 2.612-.523 1.118-.213 2.254-.444 3.375-.67.396-.083.793-.157 1.19-.235.123-.026.247-.05.37-.075m.835-1.981c-2.046.478-4.098.952-6.118 1.422-.852.198-1.693.39-2.539.59-4.52-6.096-17.245-11.63-30.926-16.92a90.102 90.102 0 0 0 4.718-3.255c12.64 7.925 25.804 16.176 34.865 18.163M102.368 15.97a267.7 267.7 0 0 0-4.982 3.82 854.051 854.051 0 0 0-4.102-1.565 146.92 146.92 0 0 0 6.383-3.945c.896.562 1.797 1.124 2.701 1.69m-15.077.79a452.96 452.96 0 0 0-6.29 5c-2.202-.712-4.397-1.423-6.573-2.13 3.323-1.624 6.56-3.258 9.596-4.897 1.077.665 2.17 1.342 3.267 2.027m-21.588 7.055a844.771 844.771 0 0 0 8.135-3.898c1.843 1.024 3.707 2.067 5.584 3.12-1.54 1.252-3.078 2.503-4.605 3.747-3.027-1-6.083-1.987-9.114-2.97m10.86 3.55c1.815-.956 3.632-1.918 5.437-2.88a866.04 866.04 0 0 0 5.638 3.136l-3.083 2.509a365.996 365.996 0 0 0-7.993-2.765m9.323 3.244c1.223-.645 2.448-1.29 3.674-1.94 11.134 6.07 21.818 11.29 29.265 12.066-.776.278-1.513.545-2.206.793a191.655 191.655 0 0 0-7.145 2.085c-3.788-4.843-12.845-9.065-23.588-13.004m34.435 10.33c.775-.24 1.565-.492 2.41-.75 1.893-.651 4.012-1.13 6.242-1.674.018-.006.03-.008.048-.015.256-.064.525-.132.781-.194l.006-.001c-5.404 5.94-10.096 18.295-14.53 31.399-1.308.58-2.609 1.156-3.898 1.722 1.183-.273 2.384-.547 3.592-.82-.81 2.406-1.61 4.823-2.407 7.23-2.507 1.114-5.002 2.224-7.462 3.307 8.255-15.615 16.192-31.325 15.218-40.204m-5.059 35.704a655.227 655.227 0 0 0 3.914-6.98c1.71-.38 3.423-.762 5.136-1.15-.55 1.639-1.098 3.28-1.64 4.92a551.04 551.04 0 0 0-7.41 3.21m7.647.57a301.165 301.165 0 0 0 7.71-1.908c-.373 1.12-.742 2.235-1.112 3.342-3.003 1.015-6.17 2.225-9.434 3.557.936-1.653 1.883-3.316 2.836-4.991m2.518-11.991a881.202 881.202 0 0 0-5.033 2.21c6.321-11.631 11.334-22.481 11.067-29.54 1.502-.375 3.03-.757 4.612-1.15.51-.13 1.032-.262 1.542-.384l1.297-.33c-4.974 5.863-9.347 17.102-13.485 29.194m-34.042-45.9c1.223.769 2.451 1.536 3.681 2.304a581.219 581.219 0 0 0-4.223 3.393c-2-.681-4.027-1.355-6.067-2.025a330.797 330.797 0 0 0 6.61-3.671m15.68-.413c11.812 7.362 23.625 14.355 31.713 15.678-1.016.289-2.034.58-3.028.86-4.859 1.442-9.454 2.567-13.26 3.973-.626.222-1.209.43-1.8.642-4.273-5.196-14.586-9.682-26.469-13.874a404.774 404.774 0 0 0 4.364-2.38c11.077 6.825 21.864 12.913 29.263 13.852.504-.137 1-.271 1.485-.396-3.936-5.573-14.78-10.672-27.02-15.545a188.276 188.276 0 0 0 4.752-2.81m25.476 50.592a195.167 195.167 0 0 0-6.749 2.63 575.85 575.85 0 0 0 2.542-4.54 410.64 410.64 0 0 0 5.27-1.256c-.356 1.054-.709 2.108-1.063 3.166m-1.949 8.787l2.002-3.518c3.133-.861 6.09-1.765 8.788-2.73-.426 1.29-.852 2.576-1.276 3.85-2.849.425-6.065 1.274-9.514 2.398m33.336-26.698c.148-.2.302-.398.445-.6 1.43-1.94 2.824-3.84 4.192-5.692.563 9.674 10.268 26.305 17.85 40.78-5.064-16.598-10.179-35.674-17.092-41.803 1.382-1.85 2.757-3.628 3.986-5.372.32-.45.63-.871.94-1.303.378 8.492 9.014 23.274 15.742 36.125-4.49-14.711-9.018-31.627-15.164-36.925.286-.395.57-.78.853-1.163l-.217-.1-1.64-.746-.527-.24a252.995 252.995 0 0 0-8.06 11.22l.083.056c-.895 1.299-1.785 2.58-2.705 3.916-1.278 1.892-2.606 3.789-3.844 5.754-1.909-.225-4.143-.08-6.629.355 4.797-9.302 8.336-17.791 8.383-23.772-.719.09-1.44.179-2.166.265-4.367 5.152-8.269 14.483-11.956 24.87a98.472 98.472 0 0 0-5.015 1.607c5.146-9.916 8.897-18.933 8.603-25.045l1.54-.306c1.664-.357 3.34-.62 5.015-.871.721-.108 1.441-.22 2.156-.33.244-.037.496-.07.738-.111 2.178-.342 4.3-.682 6.391-1.01l-.238-.108-1.622-.74-1.852-.843c-1.01.19-2.014.378-3.052.577-2.242.444-4.518.86-6.78 1.389-5.405-6.774-20.797-12.85-36.188-18.68a44.55 44.55 0 0 0 3.228-2.784l-4.647-2.117a71.262 71.262 0 0 0-4.48 2.666c-.943-.358-1.884-.715-2.816-1.072.755.466 1.52.94 2.284 1.415a130.183 130.183 0 0 0-5.812 4.026c-1.079-.41-2.156-.816-3.23-1.223 3.954-2.658 7.26-5.294 9.522-7.877l-3.706-1.688c-5.413 2.482-11.805 6.979-18.456 12.13-1.323-.501-2.64-1-3.94-1.498 7.892-4.264 14.426-8.564 17.581-12.826L99.327.849C89.957 3.6 76.55 13.768 63.873 23.224c-1.199-.39-2.394-.778-3.576-1.167.974.538 1.96 1.084 2.948 1.635a778.02 778.02 0 0 1-4.869 3.608c2.011-.964 4.061-1.935 6.118-2.91 2.594 1.45 5.221 2.929 7.852 4.4-.966.783-1.93 1.56-2.882 2.325a959.591 959.591 0 0 1 3.618-1.915 514.153 514.153 0 0 0 7.521 4.12l-.289.234c.121-.063.244-.13.364-.192 10.463 5.605 20.334 10.205 27.242 10.742-.96.314-1.934.636-2.949.987a309.2 309.2 0 0 0-4.797 1.714c-6.817-8.402-29.432-14.94-49.027-21.372C67.844 34.627 87.01 46.36 98.42 47.453c-.715.272-1.436.55-2.163.839a205.392 205.392 0 0 0-4.552 1.839c-6.867-8.26-30.046-13.905-50.137-19.57C59.101 39.275 79.353 50.54 90.65 50.585a200.272 200.272 0 0 0-3.947 1.736 342.432 342.432 0 0 0-4.324 2.058c-7.204-7.866-31.096-11.658-51.83-15.727 18.723 7.477 40.528 17.429 51.513 15.875a147.153 147.153 0 0 0-5.303 2.699c-1.163.605-2.317 1.259-3.469 1.9-7.307-7.802-31.088-11.578-51.736-15.633 18.558 7.414 40.15 17.257 51.22 15.916a207.892 207.892 0 0 0-5.972 3.486c-.412.26-.816.533-1.23.794-6.842-6.594-28.11-8.874-46.628-11.533C35.768 57.902 55.395 65.66 65.156 63.96c-1.059.69-2.129 1.369-3.174 2.07-.96.684-1.929 1.354-2.884 2.024-7.652-5.624-29.064-4.996-47.786-5.134 17.413 3.413 37.872 8.435 47.335 5.455-.444.317-.892.63-1.32.96-1.508 1.148-3.035 2.236-4.458 3.427a3.05 3.05 0 0 1-.152.129c-8.708-4.124-29.302-.868-47.439 1.339 16.494 1.072 35.791 3.205 45.64.13a54.65 54.65 0 0 0-2.245 1.938c-.676.585-1.348 1.183-2.009 1.767-.04.032-.075.074-.117.11C37.333 75.988 17.881 85.29.602 92.785c17.094-3.886 37.538-7.514 45.223-13.912-.353.338-.71.683-1.054 1.015-.619.607-1.233 1.21-1.84 1.798-.578.62-1.15 1.232-1.714 1.834-.566.603-1.119 1.202-1.663 1.786-.538.6-1.03 1.216-1.539 1.808-.286.345-.564.677-.847 1.013-7.58 1.258-19.955 11.13-30.792 18.979 8.533-4.024 17.953-8.187 24.424-12.38-4.773 6.317-9.76 15.65-14.466 23.776 9.041-10.496 19.731-22.073 21.013-29.39.03-.043.054-.088.085-.135.388-.441.786-.891 1.18-1.351.516-.57 1.02-1.167 1.564-1.752.475-.49.97-.988 1.461-1.5-5.18 8.36-9.565 23.386-13.885 36.235C36 105.885 45.984 89.44 45.55 80.54l1.817-1.701 2.008-1.74a56.231 56.231 0 0 1 2.878-2.415c-5.28 7.969-8.469 25.537-11.849 40.376 6.777-15.578 15.134-33.073 13.67-41.831 1.27-1.015 2.601-1.976 3.928-2.967 1.395-1.052 2.874-2.022 4.328-3.028-6.337 8.515-10.213 28.932-14.288 46.083 7.82-17.541 17.463-37.238 15.805-47.077 1.198-.77 2.397-1.543 3.603-2.304 3.246-2.002 6.527-3.944 9.848-5.7a136.29 136.29 0 0 1 4.628-2.41c-7.565 8.227-12.299 31.41-17.209 50.74 8.866-19.08 19.796-40.522 17.794-51.03 1.562-.778 3.113-1.52 4.636-2.246 1.756-.81 3.47-1.584 5.157-2.332-8.114 7.543-14.032 30.834-19.939 50.153 9.823-18.715 21.836-39.722 20.21-50.266a174.697 174.697 0 0 1 4.012-1.727 164.107 164.107 0 0 1 3.93-1.59c.063-.006.14.002.206 0-.012-.021-.033-.046-.044-.066.257-.096.512-.2.766-.297-8.22 7.344-14.189 30.864-20.142 50.342 9.844-18.776 21.911-39.847 20.197-50.36 1.271-.495 2.511-.962 3.698-1.407a282.148 282.148 0 0 1 4.44-1.59c.038-.001.082.004.125 0-7.899 7.943-13.715 30.765-19.53 49.748 9.717-18.507 21.56-39.237 20.248-49.897 1.226-.38 4.381-1.364 8.817-2.746-7.748 8.202-13.5 30.67-19.238 49.418 1.624-3.094 3.306-6.248 4.977-9.408a937.771 937.771 0 0 1 6.907-1.561 850.988 850.988 0 0 1-2.246 6.72c1.326-2.346 2.687-4.73 4.05-7.124a913.012 913.012 0 0 0 7.544-1.708 827.294 827.294 0 0 1-1.592 4.76c-6.949 2.849-14.29 6.204-21.3 9.282 17.711-4.101 38.827-7.978 47.375-14.522.263-.453.52-.895.778-1.327-1.57-.28-3.414-.248-5.436-.012l2.631-4.623c3.02-1.198 5.64-2.487 7.64-3.908l-1.548 2.743c-2.444 4.439-4.92 8.469-6.639 12.143-.288.6-.555 1.158-.829 1.726-10.773-1.116-31.38 10.079-49.796 19.256 18.252-5.172 39.975-10.281 48.943-17.47-.357.744-.694 1.45-1.013 2.119a187.511 187.511 0 0 0-3.615 6.505c-10.687-1.37-31.53 9.972-50.126 19.237 18.525-5.25 40.66-10.432 49.368-17.796-.463.894-.93 1.81-1.406 2.774a311.621 311.621 0 0 0-2.206 4.59c-10.755-1.183-31.434 10.066-49.893 19.267 18.34-5.198 40.217-10.328 49.101-17.574-.316.697-.635 1.402-.948 2.119a195.372 195.372 0 0 0-1.945 4.509c-10.69-1.048-31.143 11.23-49.414 21.327 18.594-6.13 40.916-12.352 48.981-20.263a193.95 193.95 0 0 0-1.584 4.009 292.955 292.955 0 0 0-1.63 4.502c-10.654-.53-30.312 13.572-47.917 25.25 18.572-7.842 41.075-16.093 47.796-24.921a141.546 141.546 0 0 0-1.873 5.649c-.403 1.247-.765 2.522-1.133 3.788-10.68-.413-30.249 13.62-47.784 25.253 18.411-7.774 40.684-15.952 47.614-24.688a207.3 207.3 0 0 0-1.795 6.677c-.109.473-.206.953-.316 1.429-9.503.12-26.232 13.453-41.269 24.579 16.005-7.743 35.42-16.022 41.166-24.093-.269 1.236-.55 2.472-.803 3.705-.202 1.162-.42 2.317-.629 3.465-9.397 1.383-24.182 16.879-37.592 29.945 14.782-9.816 32.864-20.63 37.5-29.398-.094.537-.193 1.075-.268 1.612-.264 1.874-.585 3.722-.759 5.569a1.82 1.82 0 0 1-.019.198c-9.09 3.19-21.448 19.982-32.795 34.302 12.483-10.832 27.708-22.88 32.55-31.991a52.296 52.296 0 0 0-.236 2.955c-.067.893-.126 1.789-.186 2.67-.006.05 0 .105-.004.16-8.092 4.922-15.385 25.212-22.406 42.689 9.425-14.78 21.414-31.734 22.382-41.686-.013.489-.026.986-.037 1.465-.013.865-.025 1.726-.044 2.57.025.849.05 1.685.07 2.51.021.826.05 1.64.075 2.439.036.804.12 1.588.174 2.367.041.447.075.88.11 1.317-4.507 6.224-6.367 21.945-8.558 35.143 3.243-8.86 7.014-18.444 8.668-25.973 1.046 7.848 4.062 17.993 6.427 27.078-.95-13.822-1.486-29.57-5.717-35.672-.01-.052-.023-.103-.035-.158-.034-.588-.066-1.184-.11-1.791-.034-.767-.096-1.546-.118-2.344-.007-.684-.008-1.386-.016-2.093 2.193 9.587 9.637 23.355 15.597 35.53-4.486-16.267-8.943-34.985-15.51-41.007.032-.823.065-1.652.096-2.49l.206-2.646c.065-1.237.197-2.487.346-3.743 1.847 9.38 11.933 24.117 19.96 37.045-6.134-15.842-12.485-34.16-19.685-39.357.19-1.614.46-3.236.71-4.872.251-1.732.621-3.458.95-5.197 1.477 10.509 13.072 27.755 22.232 42.818-6.77-17.972-13.759-38.76-21.855-44.592.312-1.39.621-2.783.943-4.173.901-3.703 1.87-7.392 2.996-10.976a138 138 0 0 1 1.6-4.967c.4 11.168 13.332 30.985 23.43 48.185-7.109-19.802-14.409-42.736-23.22-48.802a293.973 293.973 0 0 1 1.72-4.858c.68-1.807 1.352-3.564 2.028-5.282-.468 11.069 11.694 31.794 21.074 49.684-6.17-20.215-12.393-43.6-20.963-49.955.541-1.38 1.09-2.738 1.641-4.05a167.182 167.182 0 0 1 1.674-3.892c.043-.048.101-.095.15-.145-.026-.008-.058-.011-.08-.016.115-.25.225-.502.337-.75-.684 11 11.606 31.924 21.066 49.964-6.198-20.276-12.43-43.743-21.04-50.015a288.81 288.81 0 0 1 1.642-3.601 287.305 287.305 0 0 1 2.04-4.251c.025-.03.06-.057.09-.088-.037 11.2 11.871 31.52 21.081 49.11-6.1-19.993-12.25-43.063-20.676-49.721.603-1.132 2.155-4.05 4.34-8.152.255 11.28 11.96 31.3 21.058 48.669-6.07-19.896-12.197-42.827-20.554-49.612.381-.716.767-1.451 1.184-2.228.891-1.793 2.06-3.625 3.264-5.58.072 11.236 11.901 31.439 21.07 48.943-6.086-19.95-12.23-42.963-20.627-49.674 1.08-1.775 2.198-3.614 3.361-5.52.27-.452.55-.911.825-1.358.881 11.437 12.166 30.792 20.998 47.658-5.953-19.512-11.965-41.92-20.08-49.178.088-.14.166-.27.25-.407.73-1.075 1.463-2.162 2.201-3.26.642-.937 1.288-1.898 1.928-2.847.41 11.325 12.01 31.182 21.045 48.43-6.026-19.74-12.105-42.46-20.364-49.435.631-.935 1.257-1.86 1.89-2.794.933-1.424 1.942-2.79 2.955-4.147 1.233 11.513 12.29 30.488 20.963 47.048-5.853-19.174-11.758-41.157-19.66-48.797" fill="#FFF" mask="url(#d)"/><path d="M146 181c-10.522-17.59-24.037-37.897-24-49 8.923 5.737 16.586 28.976 24 49zm-92-69c4.635-20.027 9.026-44.129 16.664-52C73.023 70.46 62.497 92.461 54 112z" fill="#FFF" mask="url(#d)"/></g></g></g></svg>