<svg
    width="120"
    height="120"
    viewBox="0 0 120 120"
    xmlns="http://www.w3.org/2000/svg"
    class="Features-air">
    <g
        fill="none"
        fill-rule="evenodd"><rect
            fill="url(#features-gradient)"
            width="120"
            height="120"
            rx="60"/><path
                d="M59.23 26.227v5.976l-2.61-2.616-1.843 2.372 4.453 4.453v4.209l-6.296-6.296-1.837 2.372 8.133 8.133v3.825a10.418 10.418 0 0 0-6.697 3.866L49.22 50.61l-2.976-11.11-2.977.407 2.308 8.598L41.93 46.4l-1.633-6.081-2.971.407.96 3.57-5.175-2.989-1.488 2.581 5.174 2.988-3.57.954 1.128 2.779 6.087-1.628 3.645 2.105-8.598 2.302 1.128 2.779L47.73 53.19l3.314 1.913a10.418 10.418 0 0 0 0 7.732l-3.314 1.912-11.115-2.976-1.128 2.779 8.598 2.302-3.645 2.105-6.087-1.628-1.128 2.779 3.57.953-5.174 2.988 1.488 2.581 5.174-2.988-.96 3.57 2.972.407 1.633-6.081 3.645-2.105-2.308 8.599 2.977.406 2.976-11.11 3.314-1.912a10.418 10.418 0 0 0 6.697 3.866v3.825l-8.133 8.134 1.837 2.372 6.296-6.297v4.21l-4.453 4.453 1.843 2.372 2.61-2.616v5.976h2.977v-5.976l2.61 2.616 1.843-2.372-4.453-4.453v-4.21l6.296 6.297 1.837-2.372-8.133-8.134v-3.825a10.418 10.418 0 0 0 6.697-3.866l3.314 1.913 2.977 11.11 2.976-.407-2.308-8.599 3.645 2.105 1.634 6.08 2.97-.406-.959-3.57 5.175 2.988 1.488-2.58-5.174-2.989 3.57-.953-1.129-2.78-6.086 1.629-3.646-2.105 8.599-2.302-1.128-2.78-11.116 2.977-3.313-1.912c.991-2.482.991-5.25 0-7.732l3.313-1.913 11.116 2.977 1.128-2.78-8.599-2.301 3.646-2.105 6.086 1.628 1.128-2.78-3.57-.953 5.175-2.988-1.488-2.581-5.175 2.988.96-3.57-2.971-.406-1.634 6.08-3.645 2.105 2.308-8.598-2.976-.407-2.977 11.11-3.314 1.912a10.418 10.418 0 0 0-6.697-3.866V44.83l8.133-8.133-1.837-2.372-6.296 6.296v-4.209l4.453-4.453-1.843-2.372-2.61 2.616v-5.976H59.23z"
                fill="#fff"
                fill-rule="nonzero"/></g></svg>
