<svg width="37px" height="34px" viewBox="0 0 37 34" version="1.1" xmlns="http://www.w3.org/2000/svg" xmlns:xlink="http://www.w3.org/1999/xlink">
    <g stroke="none" stroke-width="1" fill="none" fill-rule="evenodd">
        <g id="Step-1" transform="translate(-915.000000, -782.000000)" fill="#F7941E" fill-rule="nonzero">
            <g id="Group-6" transform="translate(470.000000, 764.000000)">
                <g transform="translate(445.000000, 18.000000)">
                    <path d="M9.05729167,0 C8.60317833,0 8.23506944,0.362435996 8.23506944,0.809523906 L8.23506944,7.69047711 C8.23506944,8.13756097 8.60317833,8.50000101 9.05729167,8.50000101 C9.511405,8.50000101 9.87951389,8.13756097 9.87951389,7.69047711 L9.87951389,0.809523906 C9.87951389,0.362435996 9.511405,0 9.05729167,0 Z M27.9684028,0 C27.5142894,0 27.1461806,0.362435996 27.1461806,0.809523906 L27.1461806,7.69047711 C27.1461806,8.13756097 27.5142894,8.50000101 27.9684028,8.50000101 C28.4225161,8.50000101 28.790625,8.13756097 28.790625,7.69047711 L28.790625,0.809523906 C28.790625,0.362435996 28.4225161,0 27.9684028,0 Z M3.30173611,2.42857172 C1.47401833,2.42857172 0,3.87982141 0,5.67931615 L0,12.9523825 L37,12.9523825 L37,5.67931615 C37,3.87982141 35.52592,2.42857172 33.6982433,2.42857172 L31.2444444,2.42857172 L29.6128472,2.42857172 L29.6128472,5.88169713 C30.117112,6.32636861 30.4350489,6.97151869 30.4350489,7.69047711 C30.4350489,9.03174084 29.3307058,10.1190488 27.9684028,10.1190488 C26.6060998,10.1190488 25.5017361,9.03174084 25.5017361,7.69047711 C25.5017361,6.97151869 25.8196936,6.32636861 26.3239583,5.88169713 L26.3239583,2.42857172 L10.6888889,2.42857172 L10.6888889,5.86904832 C11.2010018,6.3140517 11.5239583,6.96511131 11.5239583,7.69047711 C11.5239583,9.03174084 10.4195947,10.1190488 9.05729167,10.1190488 C7.69498867,10.1190488 6.590625,9.03174084 6.590625,7.69047711 C6.590625,6.97793012 6.90354633,6.33860052 7.4,5.89434594 L7.4,2.42857172 L3.30173611,2.42857172 Z M0,14.5714465 L0,30.7492353 C0,32.548726 1.47397722,34 3.30173611,34 L33.6982433,34 C35.52592,34 37,32.548726 37,30.7492353 L37,14.5714465 L0,14.5714465 Z" ></path>
                </g>
            </g>
        </g>
    </g>
</svg>
