<svg width="27px" height="40px" viewBox="0 0 27 40" version="1.1" xmlns="http://www.w3.org/2000/svg" xmlns:xlink="http://www.w3.org/1999/xlink">
    <g stroke="none" stroke-width="1" fill="none" fill-rule="evenodd">
        <g id="Step-1" transform="translate(-919.000000, -659.000000)" fill="#F7941E" fill-rule="nonzero">
            <g id="Group-6-Copy-2" transform="translate(470.000000, 644.000000)">
                <g transform="translate(449.000000, 15.000000)">
                    <path d="M13.4995036,0 C6.0439019,0 0,6.16506329 0,13.7706329 C-0.000496378277,21.3756962 12.2138839,40 13.4995036,40 C14.7851234,40 27,21.3756962 27,13.7706329 C26.9995036,6.16506329 20.9551053,0 13.4995036,0 Z M13.4995036,19.7468354 C10.2100048,19.7468354 7.5429643,17.0263291 7.5429643,13.6708861 C7.5429643,10.315443 10.2100048,7.59493671 13.4995036,7.59493671 C16.7890025,7.59493671 19.4560429,10.315443 19.4560429,13.6708861 C19.4560429,17.0263291 16.7890025,19.7468354 13.4995036,19.7468354 Z" ></path>
                </g>
            </g>
        </g>
    </g>
</svg>
