<svg width="20" height="20" viewBox="0 0 20 20" xmlns="http://www.w3.org/2000/svg"><g fill="none" fill-rule="evenodd"><g transform="translate(-448 -5869)" fill="#FBB040" fill-rule="nonzero"><g transform="translate(448 5869)"><g><path d="M7 9.75a1.25 1.25 0 1 0 0 2.5 1.25 1.25 0 0 0 0-2.5zm6 0a1.25 1.25 0 1 0 0 2.5 1.25 1.25 0 0 0 0-2.5zM10 0C4.48 0 0 4.48 0 10s4.48 10 10 10 10-4.48 10-10S15.52 0 10 0zm0 18c-4.41 0-8-3.59-8-8 0-.29.02-.58.05-.86 2.36-1.05 4.23-2.98 5.21-5.37a9.974 9.974 0 0 0 10.41 3.97c.21.71.33 1.47.33 2.26 0 4.41-3.59 8-8 8z" /></g></g></g></g></svg>
