<svg width="222px" height="173px" viewBox="0 0 222 173" version="1.1" xmlns="http://www.w3.org/2000/svg" xmlns:xlink="http://www.w3.org/1999/xlink">
    <defs>
        <rect id="path-1" x="0" y="0" width="222" height="173"></rect>
        <rect id="path-3" x="0.656" y="0.873" width="220.682" height="220.873" rx="110.341"></rect>
    </defs>
    <g stroke="none" stroke-width="1" fill="none" fill-rule="evenodd">
        <g id="logo-canvas">
            <mask id="mask-2" fill="white">
                <use xlink:href="#path-1"></use>
            </mask>
            <g id="logoMask"></g>
            <g mask="url(#mask-2)">
                <mask id="mask-4" fill="white">
                    <use xlink:href="#path-3"></use>
                </mask>
                <use id="logo-Circle" fill="#FBB040" fill-rule="nonzero" xlink:href="#path-3"></use>
                <g id="logo-rectangles" mask="url(#mask-4)" fill-rule="nonzero">
                    <g transform="translate(-17.000000, 31.000000)">
                        <polygon id="logo-Rectangle-3" fill="#EE3135" points="0.757 106.178 253.25 106.178 253.25 141.995 0.757 141.995"></polygon>
                        <polygon id="logo-Rectangle-2" fill="#F15A29" points="0.757 53.447 253.25 53.447 253.25 106.178 0.757 106.178"></polygon>
                        <polygon id="logo-Rectangle-1" fill="#F7941E" points="0.757 0.716 253.25 0.716 253.25 53.447 0.757 53.447"></polygon>
                    </g>
                </g>
                <g id="logo-text" mask="url(#mask-4)" fill="#FFFFFF" fill-rule="nonzero">
                    <g transform="translate(20.000000, 45.000000)">
                        <path d="M9.805,38.35 C11.394,38.35 12.98,37.871 14.572,36.916 C16.159,35.96 17.747,34.683 19.334,33.073 C20.8876319,33.0113123 22.4281238,32.7621744 23.922,32.331 C25.4140029,31.8982104 26.8951188,31.4287346 28.364,30.923 C27.0002569,33.3056676 25.577484,35.6540599 24.097,37.966 C22.643,40.236 21.127,42.242 19.555,43.984 C17.985,45.724 16.338,47.124 14.621,48.184 C12.901,49.242 11.079,49.773 9.163,49.773 C7.806,49.773 6.599,49.421 5.541,48.721 C4.48381987,48.0238935 3.5803205,47.118012 2.886,46.059 C2.17110449,44.9761719 1.64246952,43.7813351 1.322,42.524 C0.99,41.242 0.877,40.04 0.973,38.913 C1.073,37.718 1.232,36.738 1.446,35.969 C1.66,35.2 1.902,34.577 2.165,34.099 C2.43,33.553 2.731,33.126 3.058,32.819 C3.34031293,33.8113319 3.79379483,34.7467229 4.398,35.583 C4.893,36.269 5.582,36.899 6.458,37.478 C7.335,38.058 8.452,38.35 9.805,38.35" id="Fill-289"></path>
                        <path d="M40.645,30.115 C40.139,31.593 39.815,32.895 39.681,34.021 C39.553,35.147 39.542,36.145 39.663,37.015 C39.783,37.887 39.996,38.632 40.312,39.249 C40.627,39.866 40.992,40.394 41.412,40.831 C42.381,41.834 43.65,42.499 45.222,42.829 C44.468,43.98 43.618,44.96 42.667,45.772 C41.834,46.447 40.837,47.008 39.663,47.45 C38.488,47.892 37.155,47.91 35.657,47.503 C34.842,47.284 34.07,46.833 33.336,46.151 C32.602,45.471 32.046,44.504 31.663,43.254 C31.277,42.004 31.138,40.466 31.25,38.642 C31.363,36.813 31.862,34.632 32.765,32.1" id="Fill-291"></path>
                        <path d="M40.886,30.37 C41.293,30.541 41.616,30.74 41.852,30.96 C42.0632969,31.1504589 42.2512748,31.3652908 42.412,31.6 C42.547,31.84 42.651,32.078 42.717,32.318 C43.161,32.318 43.514,32.078 43.787,31.6 C44.06,31.122 44.188,30.56 44.17,29.911 C44.152,29.261 43.983,28.588 43.659,27.887 C43.339,27.187 42.802,26.631 42.055,26.221 C42.582517,24.4576627 43.1779611,22.7153634 43.84,20.998 C44.4527144,19.401838 45.1062626,17.8216518 45.8,16.259 C46.4169646,14.8671846 47.0715382,13.4923465 47.763,12.136 C48.3417839,10.9927098 48.9520163,9.86561392 49.593,8.756 C50.103,8.415 50.713,8.004 51.428,7.528 C52.14,7.048 52.822,6.528 53.467,5.965 C54.0751917,5.44109682 54.6292987,4.85750894 55.121,4.223 C55.578,3.627 55.839,3.021 55.911,2.405 C55.978,1.723 55.801,1.185 55.375,0.794 C54.949,0.4 54.501,0.219 54.025,0.256 C52.701,0.256 51.247,0.869 49.672,2.099 C48.092,3.327 46.487,5.017 44.857,7.168 C43.161,7.681 41.47,8.611 39.79,9.96 C38.108,11.31 36.428,12.914 34.745,14.774 C32.9903455,16.7241963 31.3007529,18.7319632 29.679,20.794 C28.004492,22.9152846 26.3241523,25.0319593 24.638,27.144 C22.938,27.351 21.138,27.451 19.238,27.451 C18.084,27.451 17.099,27.375 16.285,27.221 C15.47,27.069 14.775,26.871 14.197,26.631 C13.619,26.395 13.158,26.128 12.819,25.838 C12.482,25.548 12.227,25.268 12.057,24.993 C11.785,24.993 11.497,25.198 11.189,25.608 C10.884,26.017 10.646,26.528 10.477,27.143 C10.307,27.759 10.266,28.425 10.35,29.141 C10.435,29.86 10.725,30.526 11.217,31.14 C11.71,31.756 12.457,32.267 13.457,32.676 C14.459,33.086 15.791,33.29 17.457,33.29 C19.22,33.29 20.925,33.121 22.572,32.779 C24.22,32.437 25.885,32.053 27.565,31.626 C29.2852863,31.1909523 31.0180411,30.8067849 32.761,30.474 C34.543,30.131 36.436,29.96 38.441,29.96 C38.8000855,29.9620881 39.1582335,29.9968987 39.511,30.064 C39.3431479,30.0297783 39.1723048,30.012359 39.001,30.012 L38.441,30.012 M37.853,18.872 C36.7720166,21.1394896 35.795329,23.4552435 34.926,25.812 C33.566,25.916 32.209,26.068 30.852,26.273 C32.4708011,23.6274738 34.1689041,21.0312971 35.944,18.488 C37.64,16.064 39.408,14.084 41.24,12.547 C40.0129297,14.6013312 38.8826928,16.7119743 37.853,18.872" id="Fill-293"></path>
                        <path d="M75.864,30.37 C76.101,29.927 76.358,29.645 76.63,29.526 C76.899,29.407 77.136,29.398 77.341,29.5 C77.543,29.602 77.672,29.8 77.724,30.09 C77.774,30.38 77.713,30.73 77.543,31.14 C77.136,32.026 76.668,33.053 76.145,34.214 C75.5931368,35.4214687 75.0156731,36.617072 74.413,37.8 C73.7839207,39.031213 73.1036605,40.2355973 72.374,41.41 C71.68991,42.5281565 70.9060475,43.5821202 70.032,44.559 C69.201,45.481 68.332,46.222 67.436,46.788 C66.536,47.35 65.594,47.633 64.61,47.633 C63.486,47.633 62.52,47.393 61.704,46.913 C60.8918527,46.439536 60.2023215,45.781861 59.691,44.993 C59.166,44.191 58.783,43.261 58.548,42.202 C58.3059714,41.1086409 58.1859047,39.9918192 58.19,38.872 L58.19,38.388 C58.19,38.234 58.206,38.072 58.241,37.901 C58.001,38.381 57.791,38.899 57.605,39.464 C57.4018808,40.0789622 57.2234053,40.701792 57.07,41.331 C56.5293302,42.0516491 55.9424284,42.7364235 55.313,43.381 C54.6592409,44.0570253 53.9620952,44.6897009 53.226,45.275 C52.5239715,45.8392408 51.7535536,46.3126464 50.933,46.684 C50.133,47.042 49.328,47.222 48.513,47.222 C47.73,47.222 47.078,47.052 46.551,46.709 C46.0351007,46.3763166 45.5932542,45.9409377 45.253,45.43 C44.9110695,44.9136107 44.6613635,44.3417907 44.515,43.74 C44.3704504,43.1880805 44.2942134,42.6205008 44.288,42.05 C44.288,39.386 44.818,36.835 45.888,34.392 C46.958,31.95 48.284,29.782 49.864,27.887 C51.44,25.991 53.14,24.482 54.956,23.353 C56.772,22.227 58.444,21.663 59.971,21.663 C60.719,21.663 61.374,21.733 61.935,21.869 C62.495,22.005 62.961,22.194 63.333,22.432 C64.251,20.42 65.211,18.472 66.215,16.594 C67.1150735,14.8879675 68.073982,13.21363 69.09,11.574 C70.008,10.104 70.847,8.934 71.61,8.068 C72.374,7.194 72.994,6.758 73.47,6.758 C74.082,6.758 74.387,7.085 74.387,7.732 C74.387,8.21 74.2,9.02 73.827,10.165 C73.3826988,11.5135846 72.9152967,12.8544486 72.425,14.187 C71.865,15.722 71.256,17.395 70.592,19.205 C69.9367291,20.9943353 69.3166099,22.7963484 68.732,24.61 C68.1747322,26.3341317 67.6741301,28.0760671 67.231,29.833 C66.805,31.523 66.55,33.019 66.465,34.315 C66.38,35.614 66.509,36.648 66.848,37.415 C67.188,38.182 67.833,38.568 68.785,38.568 C69.767,38.568 70.832,37.856 71.966,36.441 C73.105,35.025 74.405,33.002 75.864,30.371 M53.605,36.771 C54.011,36.771 54.497,36.586 55.057,36.209 C55.617,35.834 56.187,35.356 56.766,34.775 C57.3515103,34.1850202 57.9113615,33.5701181 58.444,32.932 C58.9499954,32.3284755 59.4427791,31.7139964 59.922,31.089 C60.225,30.166 60.566,29.212 60.942,28.221 C61.313,27.23 61.704,26.241 62.11,25.248 C61.838,25.148 61.501,25.096 61.095,25.096 C60.481,25.096 59.775,25.386 58.979,25.966 C58.1147284,26.6060008 57.3128344,27.3261987 56.584,28.117 C55.7656312,28.9971295 55.0170354,29.9396447 54.345,30.936 C53.647,31.959 53.125,32.898 52.765,33.751 C52.411,34.605 52.273,35.321 52.356,35.904 C52.442,36.484 52.856,36.771 53.606,36.771" id="Fill-295"></path>
                        <path d="M82.698,25.044 C82.698,24.601 82.535,24.285 82.213,24.095 C81.8620199,23.8906884 81.5270574,23.6600255 81.211,23.405 C80.799,24.327 80.392,25.215 79.981,26.069 C79.571,26.922 79.184,27.707 78.826,28.426 C78.526875,29.0319606 78.2104112,29.6292067 77.877,30.217 C77.604,30.697 77.433,31.002 77.367,31.14 C77.193,31.446 76.987,31.635 76.75,31.703 C76.5385832,31.7743348 76.3071279,31.755529 76.11,31.651 C75.92,31.551 75.793,31.379 75.725,31.141 C75.655,30.901 75.706,30.644 75.88,30.371 C76.017,30.132 76.23,29.741 76.519,29.193 C76.809,28.647 77.126,28.006 77.469,27.273 C77.809,26.54 78.171,25.771 78.547,24.968 C78.921,24.166 79.244,23.388 79.521,22.638 C78.7329168,22.3178174 78.0043927,21.8671805 77.366,21.305 C76.7919207,20.7971623 76.2917365,20.2114823 75.88,19.565 C75.434,18.881 75.213,18.045 75.213,17.055 C75.213,15.895 75.623,14.921 76.441,14.135 C77.263,13.35 78.167,12.863 79.159,12.673 C80.152,12.487 81.057,12.648 81.877,13.16 C82.698,13.673 83.105,14.63 83.105,16.03 C83.105,16.611 83.056,17.208 82.953,17.823 C82.854,18.437 82.733,18.984 82.599,19.461 C82.4630215,20.0343724 82.2927146,20.5990566 82.089,21.152 C82.566,21.253 83.159,21.476 83.872,21.818 C84.584,22.158 85.281,22.594 85.962,23.123 C86.6390628,23.6542108 87.2227439,24.2946715 87.689,25.018 C88.164,25.753 88.406,26.564 88.406,27.45 C88.406,27.964 88.236,28.596 87.895,29.347 C87.555,30.097 87.165,30.883 86.723,31.703 C86.2771482,32.5292533 85.8187619,33.3486813 85.348,34.161 C84.875,34.981 84.509,35.717 84.254,36.363 C84,37.013 83.896,37.543 83.949,37.953 C83.999,38.363 84.314,38.567 84.891,38.567 C85.398,38.567 86,38.388 86.698,38.029 C87.393,37.671 88.14,37.14 88.941,36.441 C89.739,35.741 90.57,34.879 91.435,33.855 C92.3561943,32.7537905 93.1989332,31.5892604 93.957,30.37 C94.227,29.927 94.507,29.645 94.798,29.527 C95.085,29.407 95.321,29.398 95.509,29.501 C95.699,29.603 95.808,29.801 95.842,30.089 C95.875,30.379 95.79,30.729 95.587,31.14 C95.077,32.026 94.483,33.053 93.802,34.213 C93.125,35.375 92.87,36.568 92.056,37.799 C91.2343387,39.0341982 90.3674166,40.238683 89.457,41.41 C88.5908305,42.5329089 87.6379074,43.5861397 86.607,44.56 C85.621,45.481 84.625,46.222 83.626,46.787 C82.623,47.349 81.97,47.605 80.154,47.632 C79.268,47.645 78.549,47.417 77.99,46.993 C77.4328453,46.5709941 76.9796172,46.0271205 76.665,45.403 C76.3361766,44.752882 76.120428,44.0515298 76.027,43.329 C75.9245151,42.6336789 75.907723,41.9284107 75.977,41.229 C76.112,39.693 76.537,38.071 77.249,36.363 C77.9382475,34.7069942 78.7033913,33.083608 79.542,31.498 C80.2623111,30.1356581 80.9919951,28.7782926 81.731,27.426 C82.376,26.248 82.698,25.456 82.698,25.044" id="Fill-297"></path>
                        <path d="M105.773,30.37 C106.011,29.927 106.266,29.645 106.535,29.526 C106.807,29.407 107.045,29.398 107.25,29.5 C107.454,29.602 107.58,29.8 107.63,30.09 C107.683,30.38 107.622,30.73 107.454,31.14 C107.044,32.026 106.603,33.053 106.126,34.214 C105.632668,35.4192849 105.115903,36.614845 104.576,37.8 C104.016784,39.0252956 103.41237,40.2294546 102.764,41.41 C102.165378,42.5203908 101.467534,43.5743525 100.679,44.559 C99.931,45.481 99.135,46.222 98.282,46.788 C97.4721064,47.3394256 96.5147944,47.6339028 95.535,47.633 C94.652,47.633 93.923,47.367 93.345,46.837 C92.7568892,46.291299 92.288649,45.6292925 91.97,44.893 C91.6302233,44.1254574 91.3990022,43.3143323 91.283,42.483 C91.1700569,41.7465701 91.1099036,41.0030083 91.103,40.258 C91.103,39.268 91.272,38.113 91.613,36.798 C91.953,35.485 92.384,34.136 92.912,32.752 C93.4387427,31.3668683 94.0334649,30.0085523 94.694,28.682 C95.2941748,27.4614999 95.9577471,26.2732115 96.682,25.122 C97.341,24.079 97.962,23.242 98.538,22.61 C99.116,21.98 99.591,21.663 99.967,21.663 C100.847,21.663 101.291,22.125 101.291,23.047 C101.291,23.217 101.196,23.559 101.011,24.071 C100.823,24.582 100.593,25.215 100.321,25.966 C100.052,26.716 99.761,27.546 99.456,28.451 C99.1496445,29.3583416 98.8619174,30.2718668 98.593,31.191 C98.3281463,32.0780269 98.0979716,32.9750413 97.903,33.88 C97.718,34.751 97.623,35.51 97.623,36.158 C97.623,37.15 97.808,37.8 98.185,38.106 C98.555,38.412 98.981,38.568 99.455,38.568 C100.44,38.568 101.383,37.856 102.283,36.441 C103.183,35.025 104.344,33.002 105.773,30.371 M101.645,19.308 C101.207,19.308 100.915,19 100.781,18.386 C100.643,17.77 100.628,16.994 100.729,16.056 C100.831,15.116 101.044,14.108 101.366,13.033 C101.675984,11.9888378 102.085531,10.9768589 102.589,10.011 C103.08,9.073 103.64,8.297 104.271,7.681 C104.898,7.066 105.567,6.758 106.278,6.758 C107.739,6.758 108.698,7.066 109.16,7.681 C109.618,8.296 109.752,9.073 109.568,10.011 C109.379,10.951 108.936,11.959 108.241,13.034 C107.553462,14.0971032 106.787323,15.1072579 105.949,16.056 C105.118,16.994 104.304,17.77 103.506,18.386 C102.709,19 102.088,19.308 101.646,19.308" id="Fill-299"></path>
                        <path d="M129.605,30.37 C129.844,29.927 130.1,29.645 130.371,29.526 C130.641,29.407 130.881,29.398 131.084,29.5 C131.288,29.602 131.412,29.8 131.464,30.09 C131.516,30.38 131.454,30.73 131.288,31.14 C130.881,32.026 130.403,33.053 129.861,34.214 C129.29523,35.4189798 128.709483,36.614478 128.104,37.8 C127.474838,39.0307827 126.795262,40.2351362 126.067,41.41 C125.383977,42.5227924 124.608578,43.5761711 123.749,44.559 C122.935,45.481 122.078,46.222 121.178,46.788 C120.278,47.35 119.334,47.633 118.35,47.633 C117.468,47.633 116.746,47.417 116.186,46.993 C115.619894,46.5551443 115.172592,45.9823507 114.885,45.327 C114.571939,44.6104468 114.366389,43.8515977 114.275,43.075 C114.175083,42.2758884 114.124986,41.4713339 114.125,40.666 C114.125,40.086 114.191,39.455 114.325,38.772 C114.46,38.09 114.666,37.388 114.939,36.672 C114.531,37.422 114.139,38.319 113.765,39.36 C113.368124,40.4998659 113.078534,41.6742954 112.9,42.868 C112.016273,43.9954346 110.998057,45.0106284 109.868,45.891 C108.732,46.78 107.533,47.221 106.278,47.221 C105.497,47.221 104.844,47.051 104.318,46.71 C103.802073,46.3772777 103.3605,45.941492 103.021,45.43 C102.67777,44.913829 102.426713,44.3420134 102.279,43.74 C102.136486,43.1877305 102.060943,42.6203189 102.054,42.05 C102.054,39.386 102.585,36.835 103.654,34.392 C104.724,31.95 106.05,29.782 107.63,27.887 C109.207,25.991 110.907,24.482 112.721,23.353 C114.537,22.227 116.211,21.663 117.738,21.663 C119.233,21.663 120.362,21.928 121.124,22.457 C121.89,22.987 122.382,23.577 122.602,24.225 C122.824,24.873 122.85,25.462 122.679,25.991 C122.51,26.52 122.255,26.787 121.914,26.787 C121.724909,26.7941946 121.547838,26.6944475 121.456,26.529 C121.335394,26.3291492 121.208667,26.1330564 121.076,25.941 C120.921,25.718 120.686,25.523 120.362,25.353 C120.04,25.18 119.536,25.095 118.86,25.095 C118.248,25.095 117.542,25.387 116.746,25.967 C115.881513,26.6071181 115.078996,27.3269397 114.349,28.117 C113.531894,28.9976943 112.784005,29.9401617 112.112,30.936 C111.413,31.959 110.889,32.898 110.53,33.751 C110.177,34.605 110.038,35.321 110.123,35.904 C110.208,36.484 110.622,36.771 111.371,36.771 C111.849,36.771 112.392,36.553 113.001,36.108 C113.653194,35.6281501 114.266437,35.0974974 114.835,34.521 C115.44073,33.9133322 116.011322,33.2716243 116.544,32.599 C117.068,31.933 117.485,31.379 117.791,30.936 L118.248,30.32 C118.248,30.288 118.254,30.268 118.272,30.268 C118.291,30.268 118.301,30.251 118.301,30.216 L118.35,30.166 L118.35,30.216 C118.86,29.535 119.36,28.988 119.852,28.578 C120.344,28.168 120.777,27.964 121.152,27.964 C121.762,27.964 122.066,28.288 122.066,28.938 C122.066,29.108 121.992,29.441 121.839,29.936 C121.662559,30.5207573 121.501172,31.1099517 121.355,31.703 C121.175474,32.4331488 121.014423,33.1677165 120.872,33.906 C120.717,34.691 120.642,35.443 120.642,36.158 C120.642,37.15 120.837,37.8 121.227,38.106 C121.617,38.412 122.049,38.568 122.527,38.568 C123.512,38.568 124.572,37.856 125.708,36.441 C126.847,35.025 128.146,33.002 129.605,30.371" id="Fill-301"></path>
                        <path d="M143.92,16.593 C142.595,16.798 141.261,16.994 139.919,17.183" id="Fill-303"></path>
                        <path d="M148.473,15.241 C148.305,14.601 147.935,14.041 147.363,13.562 C146.79,13.08 145.978,12.732 144.93,12.516 C144.432558,12.4188277 143.926844,12.3702658 143.42,12.371 L143.61,11.865 C144.188,10.251 144.662,8.923 145.038,7.877 C145.411,6.829 145.598,6.237 145.598,6.102 C145.598,5.172 145.141,4.71 144.223,4.71 C144.021,4.71 143.714,4.916 143.306,5.328 C142.9,5.741 142.423,6.316 141.882,7.055 C141.254574,7.91438696 140.650683,8.79071222 140.071,9.683 C139.359711,10.7762967 138.672216,11.8848906 138.009,13.008 C137.262,13.11 136.507,13.196 135.742,13.263 C134.979,13.333 134.209,13.365 133.426,13.365 C132.441,13.365 131.661,13.248 131.084,13.008 C130.505,12.768 130.08,12.498 129.81,12.188 C129.481039,11.8666149 129.251566,11.4573124 129.149,11.009 C128.571,11.009 128.153,11.361 127.899,12.059 C127.217,13.923 127.982,16.646 129.703,17.71 C130.848,18.417 132.279,18.46 133.583,18.417 C134.075,18.401 134.562,18.375 135.036,18.34 C134.052,20.218 133.426,21.543 132.409,23.763 C131.415755,25.9164308 130.496878,28.1033906 129.654,30.32 C128.889757,32.3187186 128.220015,34.3523022 127.647,36.414 C127.119,38.327 126.857,39.897 126.857,41.126 C126.857,42.049 127.026,42.902 127.363,43.687 C128.015112,45.2376977 129.250599,46.4699521 130.803,47.118 C131.615929,47.4641729 132.491463,47.6391436 133.375,47.632 C134.387523,47.6330617 135.378476,47.3394591 136.227,46.787 C137.11,46.222 137.943,45.48 138.722,44.559 C139.541816,43.5801691 140.266429,42.5253956 140.886,41.409 C141.549756,40.2287196 142.17017,39.0245832 142.746,37.799 C143.301507,36.6165826 143.828328,35.4208995 144.326,34.213 C144.8,33.053 145.256,32.026 145.702,31.14 C145.902,30.73 145.974,30.38 145.902,30.09 C145.835,29.8 145.702,29.603 145.495,29.501 C145.295,29.398 145.057,29.407 144.785,29.526 C144.512,29.646 144.255,29.927 144.021,30.37 C142.527,33.002 141.311,35.024 140.38,36.441 C139.444,37.857 138.467,38.567 137.45,38.567 C136.974,38.567 136.539,38.412 136.149,38.107 C135.759,37.799 135.565,37.15 135.565,36.158 C135.565,35.646 135.753,34.716 136.125,33.368 C136.501,32.018 136.975,30.483 137.553,28.758 C138.161876,26.9451156 138.780217,25.1354242 139.408,23.329 C140.071,21.433 140.709,19.649 141.323,17.974 C141.840368,17.9227472 142.36012,17.89938 142.88,17.904 C143.725,17.915 144.442,17.987 145.029,18.118 C145.616,18.251 146.098,18.421 146.476,18.635 C146.85,18.848 147.159,19.062 147.401,19.279 C147.666,19.239 147.925,19.006 148.167,18.585 C148.41,18.162 148.566,17.66 148.629,17.077 C148.689763,16.46061 148.636887,15.8383021 148.473,15.241" id="Fill-305"></path>
                        <path d="M156.093,67.235 C155.925,66.595 155.553,66.035 154.982,65.555 C154.409,65.075 153.599,64.725 152.55,64.51 C152.052558,64.4128277 151.546844,64.3642658 151.04,64.365 L151.23,63.859 C151.807,62.245 152.281,60.916 152.657,59.871 C153.03,58.823 153.217,58.231 153.217,58.096 C153.217,57.166 152.76,56.704 151.843,56.704 C151.641,56.704 151.333,56.909 150.925,57.322 C150.519,57.735 150.043,58.31 149.501,59.049 C148.873574,59.908387 148.269683,60.7847122 147.69,61.677 C146.97871,62.7702963 146.291215,63.8788903 145.628,65.002 C144.874506,65.105314 144.118617,65.190339 143.361,65.257 C142.598,65.327 141.828,65.358 141.045,65.358 C140.061,65.358 139.28,65.242 138.702,65.002 C138.125,64.762 137.699,64.492 137.431,64.182 C137.100944,63.861147 136.870698,63.4517057 136.768,63.003 C136.19,63.003 135.772,63.355 135.518,64.053 C134.838,65.917 135.602,68.64 137.322,69.704 C138.467,70.411 139.899,70.454 141.202,70.411 C141.695,70.396 142.181,70.369 142.655,70.334 C141.671,72.212 141.045,73.537 140.028,75.757 C139.034655,77.9102518 138.116106,80.0972266 137.274,82.314 C136.509488,84.3126233 135.839743,86.3462196 135.267,88.408 C134.739,90.321 134.475,91.891 134.475,93.12 C134.475,94.043 134.645,94.896 134.982,95.681 C135.634112,97.2316977 136.869599,98.4639521 138.422,99.112 C139.234929,99.4581729 140.110463,99.6331436 140.994,99.626 C142.013,99.626 142.964,99.343 143.846,98.781 C144.73,98.216 145.562,97.474 146.341,96.553 C147.161141,95.5744165 147.885776,94.5196108 148.505,93.403 C149.168756,92.2227196 149.78917,91.0185832 150.365,89.793 C150.920843,88.6105918 151.447997,87.4149087 151.946,86.207 C152.364558,85.1650013 152.823234,84.1395692 153.321,83.133 C153.522,82.723 153.593,82.373 153.522,82.083 C153.454,81.793 153.322,81.596 153.114,81.495 C152.914,81.392 152.676,81.401 152.404,81.52 C152.131,81.64 151.874,81.921 151.641,82.364 C150.146,84.996 148.93,87.018 147.999,88.435 C147.063,89.85 146.086,90.561 145.069,90.561 C144.593,90.561 144.158,90.406 143.769,90.101 C143.379,89.793 143.184,89.144 143.184,88.152 C143.184,87.64 143.372,86.71 143.744,85.362 C144.18048,83.813369 144.656637,82.2761962 145.172,80.752 C145.781209,78.9391138 146.399884,77.1294224 147.028,75.323 C147.69,73.427 148.328,71.643 148.942,69.968 C149.45937,69.9167703 149.97912,69.8934032 150.499,69.898 C151.344,69.908 152.061,69.981 152.648,70.112 C153.235,70.244 153.718,70.415 154.095,70.629 C154.469,70.842 154.778,71.056 155.02,71.273 C155.285,71.233 155.544,71 155.786,70.578 C156.029,70.156 156.186,69.654 156.248,69.071 C156.309088,68.4546712 156.256551,67.8323642 156.093,67.235" id="Fill-307"></path>
                        <path d="M155.887,30.37 C156.124,29.927 156.38,29.645 156.648,29.526 C156.921,29.407 157.159,29.398 157.363,29.5 C157.565,29.602 157.694,29.8 157.743,30.09 C157.797,30.38 157.736,30.73 157.565,31.14 C157.159,32.026 156.715,33.053 156.242,34.214 C155.747298,35.4192953 155.2292,36.6148547 154.688,37.8 C154.129459,39.0252748 153.525712,40.2294341 152.878,41.41 C152.279045,42.5204212 151.580867,43.5743828 150.792,44.559 C150.044,45.481 149.247,46.222 148.398,46.788 C147.586881,47.3392113 146.628687,47.6336384 145.648,47.633 C144.765,47.633 144.035,47.367 143.458,46.837 C142.869336,46.2917838 142.401008,45.6296528 142.083,44.893 C141.743555,44.125411 141.51267,43.3142859 141.397,42.483 C141.284266,41.7465304 141.223781,41.0030073 141.216,40.258 C141.216,39.268 141.385,38.113 141.726,36.798 C142.083935,35.4260285 142.518619,34.0752361 143.028,32.752 C143.552389,31.3662128 144.14648,30.0078136 144.808,28.682 C145.407423,27.4611056 146.071017,26.2727782 146.796,25.122 C147.455,24.079 148.076,23.242 148.653,22.61 C149.23,21.98 149.703,21.663 150.079,21.663 C150.962,21.663 151.405,22.125 151.405,23.047 C151.405,23.217 151.308,23.559 151.125,24.071 C150.937,24.582 150.707,25.215 150.433,25.966 C150.13702,26.7913085 149.849671,27.619687 149.571,28.451 C149.263197,29.3581746 148.974467,30.2717091 148.705,31.191 C148.440654,32.0779299 148.211475,32.9749637 148.018,33.88 C147.828,34.751 147.733,35.51 147.733,36.158 C147.733,37.15 147.923,37.8 148.297,38.106 C148.67,38.412 149.094,38.568 149.571,38.568 C150.554,38.568 151.498,37.856 152.396,36.441 C153.297,35.025 154.46,33.002 155.886,30.371 M151.76,19.308 C151.32,19.308 151.03,19 150.895,18.386 C150.757,17.77 150.742,16.994 150.842,16.056 C150.962143,15.0310884 151.175356,14.0192446 151.479,13.033 C151.789517,11.9891726 152.198696,10.9772749 152.701,10.011 C153.195,9.073 153.754,8.297 154.385,7.681 C155.012,7.066 155.681,6.758 156.393,6.758 C157.853,6.758 158.813,7.066 159.274,7.681 C159.73,8.296 159.865,9.073 159.68,10.011 C159.493,10.951 159.05,11.959 158.356,13.034 C157.668139,14.0968764 156.902017,15.1070076 156.064,16.056 C155.231,16.994 154.417,17.77 153.618,18.386 C152.822,19 152.202,19.308 151.76,19.308" id="Fill-309"></path>
                        <path d="M175.749,30.37 C175.984,29.927 176.241,29.645 176.51,29.526 C176.784,29.407 177.014,29.398 177.2,29.5 C177.384,29.602 177.513,29.8 177.58,30.09 C177.647,30.38 177.597,30.73 177.426,31.14 C177.02,32.026 176.552,33.053 176.028,34.214 C175.474068,35.4288294 174.879738,36.6248288 174.246,37.8 C173.565447,39.0543278 172.799649,40.2604925 171.954,41.41 C171.098818,42.5743473 170.106693,43.631607 168.999,44.559 C167.881131,45.4890588 166.626346,46.2409182 165.279,46.788 C163.904,47.35 162.369,47.633 160.67,47.633 C159.677945,47.6381839 158.696506,47.4287284 157.793,47.019 C156.906762,46.6184041 156.104057,46.0542038 155.427,45.356 C154.735962,44.6378248 154.190584,43.7925897 153.821,42.867 C153.42622,41.891937 153.226452,40.8489297 153.233,39.797 C153.233,37.304 153.743,34.929 154.763,32.677 C155.78,30.422 156.986,28.433 158.378,26.709 C159.769,24.985 161.186,23.619 162.632,22.61 C164.075,21.605 165.237,21.1 166.122,21.1 C166.902,21.1 167.425,21.29 167.699,21.663 C167.971,22.041 168.107,22.415 168.107,22.791 C168.643797,22.2731837 169.263322,21.8486751 169.94,21.535 C170.585,21.245 171.195,21.101 171.772,21.101 C172.556,21.101 173.057,21.23 173.278,21.485 C173.498,21.741 173.608,22.005 173.608,22.278 C173.608,22.724 173.403,23.295 172.994,23.996 C172.588,24.696 172.131,25.403 171.621,26.121 C171.114,26.837 170.653,27.521 170.246,28.169 C169.839,28.817 169.637,29.297 169.637,29.602 C169.637,29.774 169.557,29.927 169.407,30.064 C169.253,30.201 168.956,30.268 168.513,30.268 C167.803,30.268 167.207,29.997 166.733,29.449 C166.256,28.902 166.019,28.203 166.019,27.35 C166.019,26.564 166.189,25.743 166.529,24.89 C165.995057,25.4651265 165.476865,26.0546781 164.975,26.658 C164.378251,27.3754285 163.849948,28.147126 163.397,28.963 C162.902,29.833 162.494,30.817 162.172,31.907 C161.849,33.002 161.691,34.047 161.691,35.379 C161.691,36.507 161.921,37.361 162.378,37.942 C162.834,38.522 163.438,38.872 164.183,38.989 C164.931,39.111 165.789,38.999 166.756,38.659 C167.728,38.316 168.727,37.769 169.764,37.019 C170.798,36.267 171.833,35.486 172.872,34.342 C173.907,33.197 174.862,31.875 175.749,30.371" id="Fill-311"></path>
                        <path d="M40.48,88.544 C40.48,87.925 40.095,87.251 39.336,86.523 C38.574,85.795 37.629,85.021 36.501,84.199 C35.375,83.379 34.151,82.479 32.835,81.505 C31.5349119,80.5454163 30.3090975,79.4890832 29.168,78.345 C28.0716206,77.25447 27.1192266,76.0281871 26.334,74.696 C25.5753331,73.4160255 25.1788653,71.9538992 25.187,70.466 C25.187,67.679 25.857,65.224 27.191,63.099 C28.5205899,60.9829181 30.2732634,59.1645363 32.339,57.758 C34.437,56.317 36.76,55.225 39.311,54.481 C41.859,53.737 44.348,53.365 46.775,53.365 C48.575,53.365 50.223,53.726 51.712,54.445 C53.202,55.166 54.47,56.102 55.512,57.254 C56.5519873,58.4062909 57.3709681,59.7401856 57.928,61.189 C58.499,62.658 58.786,64.134 58.786,65.622 C58.786,67.104 58.536,68.491 58.033,69.773 C57.531,71.06 56.865,72.173 56.033,73.117 C55.2311873,74.0363153 54.259398,74.7921514 53.171,75.343 C52.097,75.886 51.004,76.157 49.893,76.157 C49.13,76.157 48.448,76.048 47.838,75.83 C47.2851175,75.6405364 46.7540949,75.3924576 46.254,75.09 C45.7456587,74.7904073 45.2744068,74.4319336 44.85,74.022 C45.056,73.928 45.533,73.572 46.28,72.953 C47.025,72.334 47.806,71.483 48.62,70.402 C49.434,69.317 50.154,68.01 50.78,66.477 C51.402,64.947 51.712,63.237 51.712,61.348 C51.712,60.792 51.682,60.266 51.612,59.773 C51.539,59.277 51.402,58.852 51.196,58.495 C50.9776761,58.1294208 50.6614221,57.8322182 50.283,57.637 C49.885,57.419 49.354,57.309 48.696,57.309 C47.762,57.309 46.572,57.666 45.136,58.378 C43.696,59.09 42.292,60.065 40.921,61.304 C39.5353139,62.5600474 38.3442682,64.0153206 37.387,65.622 C36.4097175,67.2121524 35.8957608,69.043556 35.903,70.91 C35.903,71.873 36.17,72.761 36.709,73.581 C37.246,74.401 37.923,75.214 38.735,76.017 C39.5831723,76.8517665 40.4596861,77.6572386 41.363,78.432 C42.299,79.236 43.174,80.094 43.989,81.006 C44.7886421,81.8980553 45.4708488,82.8887674 46.019,83.954 C46.559,85.008 46.825,86.168 46.825,87.436 C46.825,89.138 46.399,90.773 45.553,92.333 C44.702,93.896 43.498,95.282 41.938,96.488 C40.375,97.695 38.48,98.662 36.239,99.389 C34.004,100.114 31.482,100.481 28.675,100.481 C26.349,100.481 24.193,100.238 22.199,99.76 C20.205,99.282 18.472,98.6 16.997,97.719 C15.523,96.838 14.363,95.753 13.512,94.469 C12.662,93.186 12.238,91.722 12.238,90.083 C12.238,88.103 12.637,86.555 13.432,85.441 C14.231,84.328 15.132,83.522 16.139,83.026 C17.144,82.531 18.106,82.299 19.026,82.329 C19.945,82.361 20.523,82.531 20.766,82.841 C20.318,83.645 20.09,84.542 20.09,85.532 C20.09,86.769 20.43,87.901 21.106,88.922 C21.782,89.944 22.673,90.809 23.783,91.522 C24.895,92.234 26.168,92.79 27.608,93.192 C29.044,93.595 30.526,93.795 32.054,93.795 C33.582,93.795 34.872,93.626 35.929,93.286 C36.985,92.944 37.854,92.51 38.529,91.984 C39.205,91.459 39.698,90.884 40.012,90.264 C40.323,89.646 40.479,89.072 40.479,88.544" id="Fill-313"></path>
                        <path d="M77.597,81.85 C77.837,81.399 78.097,81.11 78.375,80.99 C78.655,80.868 78.887,80.859 79.078,80.965 C79.27,81.067 79.4,81.269 79.468,81.564 C79.536,81.861 79.468,82.219 79.262,82.636 C78.846,83.542 78.368,84.589 77.829,85.775 C77.2682333,87.0087584 76.6784021,88.2290987 76.06,89.435 C75.4181486,90.6929923 74.7242147,91.9237241 73.98,93.124 C73.2831803,94.2608833 72.4913522,95.3367259 71.613,96.34 C70.783,97.28 69.906,98.04 68.988,98.616 C68.067,99.192 67.106,99.479 66.101,99.479 C65.095,99.479 64.297,99.198 63.709,98.641 C63.1176391,98.0808705 62.663228,97.3920681 62.381,96.628 C62.0881922,95.8376173 61.9045009,95.0110065 61.835,94.171 C61.7740622,93.4655529 61.7400375,92.7580392 61.733,92.05 C61.767,91.633 61.81,91.145 61.863,90.586 C61.913,90.031 61.976,89.54 62.043,89.123 C61.87,89.507 61.716,89.923 61.576,90.378 C61.436,90.762 61.292,91.215 61.134,91.738 C60.9731304,92.2743025 60.8254195,92.8144645 60.691,93.358 C60.3403636,94.0142572 59.9416064,94.6436452 59.498,95.241 C59.006655,95.9067397 58.4578873,96.5281189 57.858,97.098 C57.2581269,97.6689973 56.5741629,98.1445344 55.83,98.508 C55.0780646,98.8767914 54.2504744,99.0651136 53.413,99.058 C52.96,99.058 52.5,98.973 52.034,98.798 C51.5474979,98.6130984 51.1104164,98.3180598 50.757,97.936 C50.377,97.535 50.065,97.002 49.823,96.34 C49.581,95.679 49.457,94.842 49.457,93.83 C49.457,92.47 49.675,91.005 50.11,89.436 C50.543,87.866 51.104,86.306 51.8,84.754 C52.4781487,83.2305427 53.2410076,81.7462228 54.085,80.308 C54.8421133,79.0107852 55.6665734,77.7540677 56.555,76.543 C57.37,75.445 58.119,74.573 58.792,73.927 C59.469,73.283 59.996,72.96 60.38,72.96 C61.108,72.96 61.474,73.378 61.474,74.214 C61.474,74.563 61.264,75.184 60.847,76.072 C60.43,76.961 59.982,77.992 59.498,79.16 C59.0006339,80.3534431 58.5496299,81.5656831 58.146,82.794 C57.727,84.049 57.518,85.217 57.518,86.298 C57.518,86.893 57.623,87.388 57.829,87.79 C58.04,88.188 58.405,88.389 58.922,88.389 C59.479,88.389 60.095,88.007 60.772,87.239 C61.448,86.472 62.139,85.522 62.852,84.389 C63.6107541,83.1688121 64.3393088,81.9301024 65.037,80.674 C65.7321198,79.4176824 66.4596976,78.1795997 67.219,76.961 C67.931,75.828 68.59,74.878 69.198,74.111 C69.801,73.346 70.349,72.96 70.836,72.96 C71.737,72.96 72.186,73.43 72.186,74.372 C72.186,74.548 72.091,74.896 71.899,75.419 C71.711,75.941 71.476,76.587 71.197,77.355 C70.919,78.121 70.627,78.967 70.315,79.89 C70.0021442,80.8174654 69.7064272,81.7506242 69.428,82.689 C69.153,83.631 68.918,84.546 68.726,85.434 C68.537,86.323 68.44,87.101 68.44,87.762 C68.44,88.775 68.632,89.436 69.013,89.75 C69.395,90.065 69.826,90.222 70.315,90.222 C71.321,90.222 72.415,89.497 73.593,88.052 C74.768,86.602 76.103,84.537 77.597,81.851" id="Fill-315"></path>
                        <path d="M91.844,76.83 C91.43,76.83 90.891,77.091 90.232,77.615 C89.573,78.139 88.852,78.845 88.075,79.735 C87.2193783,80.7196805 86.4290273,81.7592294 85.709,82.847 C84.9009134,84.0493696 84.1630156,85.297452 83.499,86.585 C82.8269885,87.8827432 82.2527283,89.2288119 81.781,90.612 C81.314,91.992 81.027,93.324 80.923,94.614 C80.854,95.312 80.872,95.869 80.973,96.287 C81.078,96.707 81.201,97.038 81.338,97.281 C81.512,97.701 81.445,97.997 81.132,98.171 C80.854,98.381 80.47,98.582 79.985,98.772 C79.502,98.963 78.929,99.059 78.271,99.059 C76.986,99.059 75.93,98.544 75.098,97.517 C74.267,96.489 73.85,94.945 73.85,92.887 C73.85,91.772 74.055,90.509 74.47,89.097 C74.9131163,87.615553 75.4529421,86.1647711 76.086,84.754 C76.7466143,83.2698483 77.4842855,81.8212089 78.296,80.414 C79.0351502,79.1224281 79.8326402,77.86513 80.686,76.646 C81.47,75.549 82.187,74.66 82.848,73.978 C83.506,73.299 84.028,72.96 84.406,72.96 C85.308,72.96 85.758,73.43 85.758,74.372 C85.758,74.548 85.648,74.895 85.422,75.419 C85.196,75.941 84.909,76.596 84.562,77.379 C84.185099,78.2421275 83.8303165,79.1147457 83.498,79.996 C83.1293374,80.9697561 82.7905126,81.9545489 82.482,82.949 C83.1018928,82.0062952 83.7621736,81.0907771 84.461,80.205 C85.1665812,79.3250862 85.9123737,78.4781862 86.696,77.667 C87.5792068,76.7452969 88.5364052,75.8974639 89.558,75.132 C90.5949016,74.3477542 91.7206771,73.6885345 92.912,73.168 C94.0657234,72.6542422 95.3140612,72.3872035 96.577,72.384 C97.479,72.384 98.278,72.7 98.972,73.328 C99.662,73.955 99.96,74.773 99.854,75.783 C99.819,76.308 99.576,77.033 99.128,77.955 C98.6318239,78.960776 98.1120129,79.9547186 97.569,80.936 C96.9672697,82.0147824 96.3689334,83.0954544 95.774,84.178 C95.2318503,85.1435502 94.745064,86.1391584 94.316,87.16 C93.951,88.051 93.763,88.782 93.744,89.358 C93.726,89.933 94.012,90.221 94.602,90.221 C95.122,90.221 95.727,90.037 96.422,89.671 C97.117,89.306 97.869,88.765 98.686,88.051 C99.5,87.335 100.351,86.455 101.233,85.411 C102.178666,84.2771344 103.056529,83.0883974 103.862,81.851 C104.139,81.399 104.425,81.111 104.718,80.989 C105.014,80.867 105.245,80.859 105.418,80.964 C105.593,81.066 105.698,81.268 105.734,81.564 C105.766,81.861 105.68,82.219 105.474,82.636 C104.953,83.542 104.354,84.588 103.679,85.776 C102.96445,87.0207833 102.208699,88.241458 101.413,89.436 C100.577195,90.6989587 99.6925244,91.9288905 98.761,93.123 C97.8765698,94.2700448 96.903231,95.3456996 95.85,96.34 C94.843,97.281 93.831,98.04 92.806,98.616 C91.784,99.191 90.771,99.478 89.766,99.478 C88.864,99.478 88.118,99.26 87.529,98.826 C86.9486487,98.3996914 86.4760601,97.8435437 86.149,97.202 C85.8148246,96.5379075 85.5950745,95.8221986 85.499,95.085 C85.3970646,94.3748702 85.3802792,93.6551096 85.449,92.941 C85.555,91.789 85.829,90.585 86.281,89.331 C86.7305,88.0736462 87.2506618,86.8426856 87.839,85.644 C88.405178,84.4894542 89.0122282,83.3554044 89.659,82.244 C90.2066897,81.3174829 90.7443875,80.3850955 91.272,79.447 C91.722,78.644 92.018,78.007 92.157,77.537 C92.297,77.067 92.192,76.83 91.844,76.83" id="Fill-317"></path>
                        <path d="M116.811,71.445 C116.811,72.211 116.619,72.978 116.241,73.745 C115.868018,74.4980429 115.413639,75.2079465 114.886,75.862 C114.385049,76.4868568 113.837482,77.0728668 113.248,77.615 L113.051,77.795 C112.571,78.235 112.176,78.594 111.87,78.871 C111.80061,78.597406 111.773629,78.3147813 111.79,78.033 C111.808,77.754 111.82,77.493 111.82,77.248 C111.82,77.004 111.833,76.76 111.87,76.518 C111.698978,76.8583496 111.568099,77.2174262 111.48,77.588 C111.392,77.955 111.316,78.313 111.245,78.661 C111.174,79.046 111.142,79.448 111.142,79.865 C111.142,80.562 111.245,81.285 111.453,82.035 C111.66,82.785 111.876,83.587 112.106,84.442 C112.33,85.297 112.546,86.212 112.752,87.186 C112.962,88.163 113.067,89.226 113.067,90.377 C113.067,91.737 112.796,92.976 112.259,94.089 C111.736008,95.1845724 111.008653,96.1702183 110.116,96.993 C109.209405,97.8210144 108.148058,98.4616289 106.993,98.878 C105.806435,99.3134308 104.551932,99.5345349 103.288,99.531 C101.624,99.531 100.296,99.225 99.308,98.615 C98.32,98.005 97.612,97.239 97.178,96.313 C96.7417887,95.3820866 96.5271778,94.3627707 96.551,93.335 C96.5607812,92.3188186 96.7371205,91.311117 97.073,90.352 C97.401,89.428 97.843,88.659 98.397,88.052 C98.954,87.439 99.543,87.133 100.165,87.133 C100.34,87.133 100.401,87.303 100.351,87.633 C100.296,87.963 100.308,88.339 100.377,88.757 C100.444,89.173 100.662,89.55 101.023,89.88 C101.389,90.213 102.089,90.378 103.133,90.378 C103.827,90.378 104.389,90.263 104.823,90.038 C105.240967,89.8263161 105.597921,89.5113567 105.86,89.123 C106.122,88.737 106.295,88.303 106.38,87.815 C106.468,87.326 106.512,86.82 106.512,86.298 C106.478,85.112 106.22,83.734 105.734,82.165 L105.524,82.636 C105.318,82.985 105.082,83.192 104.823,83.266 C104.563,83.335 104.338,83.307 104.146,83.187 C103.948873,83.0562548 103.802152,82.8622722 103.73,82.637 C103.643,82.392 103.686,82.132 103.861,81.85 C104.357979,81.0394262 104.825615,80.2112232 105.263,79.367 C105.506,78.897 105.723,78.478 105.914,78.112 C106.102,77.747 106.22,77.512 106.252,77.405 C106.389,76.883 106.638,76.168 107,75.263 C107.362,74.356 107.857,73.457 108.491,72.568 C109.14307,71.6620238 109.945707,70.8746071 110.864,70.24 C111.811,69.579 112.963,69.247 114.315,69.247 C115.25,69.247 115.9,69.481 116.266,69.954 C116.627,70.424 116.811,70.921 116.811,71.444" id="Fill-319"></path>
                        <path d="M137.422,81.85 C137.665,81.399 137.922,81.11 138.201,80.99 C138.477,80.868 138.714,80.859 138.901,80.965 C139.093,81.067 139.224,81.269 139.291,81.564 C139.361,81.861 139.311,82.219 139.136,82.636 C138.72,83.542 138.242,84.589 137.707,85.775 C137.167,86.96 136.889,88.18 136.216,89.435 C135.521883,90.7173046 134.739673,91.9499283 133.875,93.124 C133.001539,94.3127755 131.988638,95.3924877 130.858,96.34 C129.728,97.28 128.462,98.04 127.059,98.616 C125.656,99.192 124.21,99.409 122.024,99.479 C120.985,99.511 120.004,99.269 119.086,98.851 C118.179821,98.4411808 117.358866,97.8644768 116.666,97.151 C115.962445,96.4187224 115.40724,95.5572198 115.031,94.614 C114.626312,93.6180016 114.421753,92.55205 114.429,91.477 C114.429,89.419 114.883,87.266 115.783,85.017 C116.683,82.767 117.862,80.711 119.322,78.844 C120.775,76.98 122.414,75.437 124.234,74.214 C126.054,72.996 127.884,72.384 129.721,72.384 C130.623,72.384 131.336,72.542 131.853,72.856 C132.374,73.169 132.765,73.536 133.026,73.955 C133.278589,74.3500688 133.438263,74.7972916 133.493,75.263 C133.547,75.716 133.573,76.082 133.573,76.36 C133.573,77.405 133.329,78.575 132.846,79.865 C132.360623,81.1481146 131.722711,82.3682064 130.946,83.499 C130.164,84.633 129.296,85.584 128.344,86.349 C127.389,87.118 126.427,87.502 125.457,87.502 C124.836,87.502 124.277,87.396 123.793,87.186 C123.324926,86.9875796 122.887261,86.7239702 122.493,86.403 C122.459,86.612 122.433,86.821 122.414,87.031 C122.396,87.24 122.388,87.431 122.388,87.605 C122.388,88.86 122.866,89.801 123.818,90.43 C124.773,91.058 125.986,91.215 127.46,90.9 C128.934,90.586 130.554,89.715 132.325,88.285 C134.093,86.855 135.79,84.711 137.422,81.851 M129.618,76.36 C129.412,76.36 129.088,76.528 128.655,76.855 C128.221,77.189 127.746,77.641 127.226,78.217 C126.65974,78.8465396 126.121227,79.5004952 125.612,80.177 C125.058708,80.9090401 124.55524,81.6774382 124.105,82.477 C124.341514,82.5493067 124.587688,82.5850524 124.835,82.583 C125.525,82.583 126.239,82.263 126.967,81.617 C127.684418,80.9820126 128.321481,80.2616647 128.864,79.472 C129.4,78.689 129.765,77.974 129.958,77.327 C130.147,76.684 130.033,76.36 129.618,76.36" id="Fill-321"></path>
                        <path d="M111.794,61.416 C114.417,61.363 106.684,61.551 104.321,61.751 C101.965,61.952 99.667,62.171 97.426,62.401 C95.2,62.639 92.962,62.845 90.724,63.024 C88.4203887,63.2070918 86.1097664,63.2875048 83.799,63.265 C81.419,63.247 79.526,63.099 78.114,62.825 C76.709,62.553 75.654,62.215 74.951,61.816 C74.248,61.413 73.855,60.989 73.761,60.54 C73.6659109,60.1099918 73.7336056,59.6599996 73.951,59.277 C74.174,58.881 74.506,58.558 74.943,58.297 C75.377,58.037 75.797,57.911 76.182,57.914 C76.432,58.09 76.79,58.274 77.274,58.464 C77.761,58.654 78.401,58.828 79.204,58.987 C79.998,59.148 80.999,59.282 82.189,59.389 C83.375,59.496 84.776,59.559 86.372,59.57 C88.8892452,59.5961587 91.4067466,59.5574793 93.922,59.454 C96.1935821,59.3582427 98.4643275,59.243572 100.734,59.11 C102.974,58.977 105.246,58.862 107.552,58.763 C109.865,58.663 112.352,58.626 115.022,58.648 C117.068,58.664 118.612,58.901 119.646,59.358 C120.69,59.816 121.356,60.313 121.641,60.853 C121.929,61.393 121.874,61.886 121.483,62.331 C121.092,62.777 120.506,62.999 119.733,62.991 C119.68,62.859 119.563,62.727 119.369,62.594 C119.185665,62.4586587 118.992834,62.3366774 118.792,62.229 C118.548,62.094 117.181,61.776 117.697,61.856 C115.987,61.586 114.402,61.363 111.794,61.416" id="Fill-323"></path>
                        <path d="M28.216,22.643 C28.216,22.643 18.736,34.377 16.163,36.283 C13.591,38.186 16.397,41.593 16.397,41.593 C16.397,41.593 24.234,37.336 24.791,36.441 C25.347,35.544 31.32,25.501 31.894,24.598 C32.468,23.694 31.214,22.643 31.214,22.643 L28.216,22.643 Z" id="Fill-325"></path>
                        <path d="M35.755,23.657 C35.755,23.657 32.134,32.795 31.692,35.718 C31.25,38.642 32.035,42.731 33.115,42.902 C34.196,43.074 40.829,29.279 40.829,29.279 L40.489,25.289 L35.755,23.657 Z" id="Fill-327"></path>
                        <path d="M79.434,27.195 C79.434,27.195 75.98,34.601 75.531,35.529 C75.081,36.459 74.123,36.132 74.123,36.132 C74.123,36.132 74.733,32.366 75.213,31.522 C75.693,30.678 76.626,29.075 77.639,26.905 C78.654,24.735 78.996,25.152 79.066,25.351 C79.136,25.551 79.434,27.195 79.434,27.195" id="Fill-329"></path>
                        <path d="M56.37,42.212 C56.8,41.684 59.218,38.879 59.547,38.318 C59.875,37.758 59.604,36.564 59.26,36.549 C58.917,36.535 57.715,36.607 57.501,36.679 C57.287,36.75 54.226,39.541 54.226,39.584 C54.226,39.627 54.612,41.886 54.697,41.9 C54.784,41.914 56.371,42.212 56.371,42.212" id="Fill-331"></path>
                        <path d="M112.14,43.773 C112.14,43.773 114.58,40.892 115.073,40.397 L117.289,35.858 L115.949,35.665 C115.949,35.665 113.705,36.848 113.595,37.013 C113.485,37.178 110.121,40.672 110.23,40.865 C110.34,41.057 112.14,43.773 112.14,43.773" id="Fill-333"></path>
                        <path d="M60.42,93.847 C60.42,93.847 62.258,90.722 62.622,89.724 C62.987,88.726 62.258,88.257 62.258,88.257 C62.258,88.257 59.806,89.439 59.745,89.52 C59.685,89.602 58.733,92.352 58.772,92.434 C58.813,92.514 60.42,93.847 60.42,93.847" id="Fill-335"></path>
                        <path d="M112.817,77.996 C112.467,78.295 111.02,79.716 110.845,79.891 C110.67,80.067 110.165,78.154 110.198,78.031 C110.234,77.908 111.141,74.889 111.298,74.872 C111.455,74.855 113.428,74.925 113.428,74.978 C113.428,75.031 112.817,77.997 112.817,77.997" id="Fill-337"></path>
                        <path d="M164.851,71.445 C164.851,72.211 164.659,72.978 164.281,73.745 C163.908018,74.4980429 163.453639,75.2079465 162.926,75.862 C162.425049,76.4868568 161.877482,77.0728668 161.288,77.615 L161.091,77.795 C160.611,78.235 160.216,78.594 159.91,78.871 C159.84061,78.597406 159.813629,78.3147813 159.83,78.033 C159.848,77.754 159.86,77.493 159.86,77.248 C159.86,77.004 159.873,76.76 159.91,76.518 C159.738978,76.8583496 159.608099,77.2174262 159.52,77.588 C159.432,77.955 159.356,78.313 159.285,78.661 C159.214,79.046 159.182,79.448 159.182,79.865 C159.182,80.562 159.285,81.285 159.493,82.035 C159.7,82.785 159.916,83.587 160.146,84.442 C160.37,85.297 160.586,86.212 160.792,87.186 C161.002,88.163 161.107,89.226 161.107,90.377 C161.107,91.737 160.835,92.976 160.299,94.089 C159.776008,95.1845724 159.048653,96.1702183 158.156,96.993 C157.249405,97.8210144 156.188058,98.4616289 155.033,98.878 C153.846457,99.3135131 152.591939,99.5346198 151.328,99.531 C149.664,99.531 148.336,99.225 147.348,98.615 C146.36,98.005 145.652,97.239 145.218,96.313 C144.781612,95.3821783 144.567319,94.3627422 144.592,93.335 C144.600971,92.3188295 144.776986,91.3110504 145.113,90.352 C145.441,89.428 145.883,88.659 146.437,88.052 C146.994,87.439 147.584,87.133 148.205,87.133 C148.38,87.133 148.441,87.303 148.391,87.633 C148.336,87.963 148.348,88.339 148.417,88.757 C148.484,89.173 148.702,89.55 149.063,89.88 C149.429,90.213 150.129,90.378 151.173,90.378 C151.867,90.378 152.429,90.263 152.863,90.038 C153.280967,89.8263161 153.637921,89.5113567 153.9,89.123 C154.162,88.737 154.335,88.303 154.42,87.815 C154.508,87.326 154.552,86.82 154.552,86.298 C154.518,85.112 154.26,83.734 153.774,82.165 L153.564,82.636 C153.358,82.985 153.122,83.192 152.863,83.266 C152.603,83.335 152.378,83.307 152.186,83.187 C151.988873,83.0562548 151.842152,82.8622722 151.77,82.637 C151.683,82.392 151.726,82.132 151.901,81.85 C152.397979,81.0394262 152.865615,80.2112232 153.303,79.367 C153.546,78.897 153.763,78.478 153.954,78.112 C154.142,77.747 154.26,77.512 154.292,77.405 C154.429,76.883 154.678,76.168 155.04,75.263 C155.402,74.356 155.897,73.457 156.531,72.568 C157.18307,71.6620238 157.985707,70.8746071 158.904,70.24 C159.851,69.579 161.003,69.247 162.355,69.247 C163.291,69.247 163.94,69.481 164.306,69.954 C164.667,70.424 164.851,70.921 164.851,71.444" id="Fill-339"></path>
                        <path d="M160.857,77.996 C160.507,78.295 159.06,79.716 158.885,79.891 C158.71,80.067 158.204,78.154 158.238,78.031 C158.274,77.908 159.181,74.889 159.338,74.872 C159.495,74.855 161.468,74.925 161.468,74.978 C161.468,75.031 160.857,77.997 160.857,77.997" id="Fill-341"></path>
                        <path d="M154.504,80.108 L153.144,79.672 C153.144,79.672 150.366,84.582 149.812,85.494 C149.258,86.404 148.179,88.137 147.998,88.436 C147.819,88.734 151.01,88.045 151.01,88.045 C151.01,88.045 152.243,85.471 152.499,84.895 C152.755,84.322 153.701,82.649 153.964,82.072" id="Fill-343"></path>
                    </g>
                </g>
            </g>
        </g>
    </g>
</svg>
