<svg width="280" height="154" class="sliders" viewBox="0 0 280 154" xmlns="http://www.w3.org/2000/svg" xmlns:xlink="http://www.w3.org/1999/xlink"><defs><path id="sliderspath-1" d="M0 0h280v154H0z"/><linearGradient x1="100%" y1="100%" x2="0%" y2="0%" id="sliderslinearGradient-3"><stop stop-color="#EE3135" offset="0%"/><stop stop-color="#FBB040" offset="100%"/></linearGradient><rect id="sliderspath-4" x="139" y="19" width="17" height="17" rx="8.5"/><filter x="-94.1%" y="-82.4%" width="288.2%" height="288.2%" filterUnits="objectBoundingBox" id="filter-5"><feOffset dy="2" in="SourceAlpha" result="shadowOffsetOuter1"/><feGaussianBlur stdDeviation="5" in="shadowOffsetOuter1" result="shadowBlurOuter1"/><feColorMatrix values="0 0 0 0 0 0 0 0 0 0 0 0 0 0 0 0 0 0 0.3 0" in="shadowBlurOuter1"/></filter><rect id="path-6" x="59" y="67" width="17" height="17" rx="8.5"/><filter x="-94.1%" y="-82.4%" width="288.2%" height="288.2%" filterUnits="objectBoundingBox" id="filter-7"><feOffset dy="2" in="SourceAlpha" result="shadowOffsetOuter1"/><feGaussianBlur stdDeviation="5" in="shadowOffsetOuter1" result="shadowBlurOuter1"/><feColorMatrix values="0 0 0 0 0 0 0 0 0 0 0 0 0 0 0 0 0 0 0.3 0" in="shadowBlurOuter1"/></filter><rect id="path-8" x="209" y="115" width="17" height="17" rx="8.5"/><filter x="-94.1%" y="-82.4%" width="288.2%" height="288.2%" filterUnits="objectBoundingBox" id="filter-9"><feOffset dy="2" in="SourceAlpha" result="shadowOffsetOuter1"/><feGaussianBlur stdDeviation="5" in="shadowOffsetOuter1" result="shadowBlurOuter1"/><feColorMatrix values="0 0 0 0 0 0 0 0 0 0 0 0 0 0 0 0 0 0 0.3 0" in="shadowBlurOuter1"/></filter></defs><g id="Mobile" fill="none" fill-rule="evenodd"><g id="Group-32"><mask id="mask-2" fill="#fff"><use xlink:href="#sliderspath-1"/></mask><use id="Mask" fill="#FFF" xlink:href="#sliderspath-1"/><g mask="url(#mask-2)"><g transform="translate(20 11)"><rect id="Rectangle-8" fill="url(#sliderslinearGradient-3)" y="26" width="240" height="2" rx="1"/><g id="Rectangle-19"><use fill="#000" filter="url(#filter-5)" xlink:href="#sliderspath-4"/><use fill="#F16138" xlink:href="#sliderspath-4"/></g><g id="Group-29-Copy-6" transform="translate(0 48)" opacity=".8"><g id="Group" fill="#262626"><path d="M4.006 13.103c-1.689 0-3.281-.937-3.582-2.776l1.456-.369c.15 1.251 1.039 1.839 2.153 1.839 1.128 0 1.784-.622 1.784-1.429 0-2.18-4.771-1.456-4.771-4.56 0-1.64 1.326-2.597 2.912-2.597 1.19 0 2.229.506 2.871 1.647l-1.217.752c-.376-.71-.97-1.093-1.702-1.093-.793 0-1.394.505-1.394 1.216 0 1.983 4.771 1.306 4.771 4.505 0 1.764-1.463 2.865-3.281 2.865zm7.191.027c-1.292 0-2.037-.766-2.037-2.03V7.36H8.04V6.17h1.14V4.38l1.388-1.012v2.803h1.778v1.19h-1.778v3.5c0 .758.342 1.018.875 1.018.335 0 .684-.123.896-.219l.007 1.278c-.24.09-.69.192-1.149.192zm5.503 0c-2.057 0-3.431-1.613-3.431-3.562 0-1.934 1.374-3.527 3.431-3.527 2.058 0 3.439 1.593 3.439 3.527 0 1.942-1.381 3.562-3.439 3.562zm0-1.224c1.333 0 1.969-1.087 1.969-2.338 0-1.244-.636-2.303-1.969-2.303-1.333 0-1.962 1.052-1.962 2.303 0 1.258.63 2.338 1.962 2.338zm4.977 3.924V6.17h1.456v.958c.458-.725 1.278-1.087 2.112-1.087 1.873 0 2.92 1.64 2.92 3.548 0 1.914-1.047 3.54-2.94 3.54-.848 0-1.634-.361-2.092-1.086v3.787h-1.456zm3.22-3.985c1.244 0 1.838-.998 1.838-2.256 0-1.265-.594-2.242-1.839-2.242-1.237 0-1.893.964-1.893 2.242 0 1.271.656 2.256 1.893 2.256z" id="Stop"/><path d="M212.702 13V3.34h2.98c1.826 0 3.302 1.013 3.302 2.79 0 1.25-.793 2.16-1.941 2.509L219.729 13h-1.681l-2.427-4.21c-.184 0-.39.006-.588.006h-.861V13h-1.47zm1.484-5.407h1.626c1.087-.034 1.716-.568 1.716-1.436 0-.923-.697-1.497-1.832-1.497h-1.51v2.933zm6.87-2.762v-1.49h1.476v1.49h-1.476zM221.09 13V6.17h1.408V13h-1.408zm5.974.13c-1.893 0-2.98-1.627-2.98-3.548 0-1.907 1.087-3.541 2.96-3.541.834 0 1.654.362 2.112 1.087V3.34h1.436V13h-1.32l-.054-1.032c-.465.772-1.279 1.162-2.154 1.162zm.342-1.285c1.238 0 1.866-.978 1.866-2.263 0-1.271-.628-2.256-1.866-2.256-1.244 0-1.886.998-1.886 2.256 0 1.272.642 2.263 1.886 2.263zm8.128 1.285c-2.256 0-3.37-1.64-3.37-3.514 0-1.832 1.053-3.575 3.254-3.575 2.345 0 3.097 1.88 3.097 3.35 0 .26-.028.54-.055.635h-4.806c.123 1.108.711 1.819 1.887 1.819.684 0 1.237-.205 1.764-.773l.97.855c-.752.82-1.613 1.203-2.74 1.203zM233.654 9h3.466a1.488 1.488 0 0 0-.04-.43c-.138-.773-.732-1.34-1.676-1.34-1.066 0-1.606.745-1.75 1.77z" id="Ride"/></g></g><rect id="Rectangle-8-Copy" fill="url(#sliderslinearGradient-3)" y="74" width="240" height="2" rx="1"/><g id="Rectangle-19-Copy"><use fill="#000" filter="url(#filter-7)" xlink:href="#path-6"/><use fill="#F8923D" xlink:href="#path-6"/></g><g id="Group-29-Copy-7" transform="translate(0 96)" opacity=".8"><g id="Group" fill="#262626"><path d="M1.34 13V3.34h2.734c3.261 0 4.997 1.764 4.997 4.902 0 3.015-1.784 4.758-5.01 4.758H1.34zm1.47-1.354h1.114c2.276 0 3.678-.963 3.678-3.465 0-2.427-1.06-3.487-3.548-3.487H2.81v6.952zm10.253 1.484c-1.729 0-2.433-1.34-2.44-2.782V6.17h1.401v3.965c0 1.011.493 1.688 1.436 1.688 1.012 0 1.661-.58 1.661-1.818V6.17h1.401V13h-1.4v-.916c-.507.725-1.307 1.046-2.059 1.046zM18.67 13V6.17h1.374v1.245a2.023 2.023 0 0 1 1.928-1.374c.424 0 .868.137 1.182.438l-.642 1.162a1.404 1.404 0 0 0-.752-.226c-.827 0-1.73.725-1.73 2.502V13h-1.36zm8.039-6.959c1.825 0 2.878 1.121 2.878 2.803V13h-1.169l-.096-1.066c-.458.8-1.387 1.196-2.242 1.196-1.401 0-2.44-.8-2.44-2.188 0-1.456 1.162-1.968 2.761-1.968h1.9c-.027-1.176-.389-1.696-1.585-1.696-.82 0-1.381.445-1.73 1.012l-1.08-.78c.657-.908 1.504-1.469 2.803-1.469zm-.349 5.886c1.108 0 1.798-.793 1.942-1.716v-.212h-1.819c-.95 0-1.394.424-1.394.984s.43.944 1.271.944zm7.424 1.203c-1.292 0-2.037-.766-2.037-2.03V7.36h-1.121V6.17h1.142V4.38l1.387-1.012v2.803h1.778v1.19h-1.778v3.5c0 .758.342 1.018.875 1.018.335 0 .684-.123.896-.219l.007 1.278c-.24.09-.69.192-1.149.192zm2.748-8.299v-1.49h1.477v1.49H36.53zM36.565 13V6.17h1.409V13h-1.409zm6.358.13c-2.058 0-3.432-1.613-3.432-3.562 0-1.934 1.374-3.527 3.432-3.527 2.057 0 3.438 1.593 3.438 3.527 0 1.942-1.38 3.562-3.438 3.562zm0-1.224c1.333 0 1.969-1.087 1.969-2.338 0-1.244-.636-2.303-1.97-2.303-1.332 0-1.961 1.052-1.961 2.303 0 1.258.629 2.338 1.962 2.338zM47.886 13V6.17h1.408v.917c.506-.725 1.299-1.046 2.05-1.046 1.723 0 2.441 1.34 2.448 2.782V13h-1.408V9.035c0-1.012-.5-1.688-1.436-1.688-1.011 0-1.654.58-1.654 1.818V13h-1.408z" id="Duration"/></g></g><rect id="Rectangle-8-Copy-2" fill="url(#sliderslinearGradient-3)" y="122" width="240" height="2" rx="1"/><g id="Rectangle-19-Copy-2"><use fill="#000" filter="url(#filter-9)" xlink:href="#path-8"/><use fill="#EE3735" xlink:href="#path-8"/></g><g id="Group-29-Copy-3" opacity=".8"><g id="Group" fill="#262626"><path d="M5.25 13.13c-3.076 0-4.573-2.25-4.573-4.963 0-2.72 1.476-4.97 4.587-4.97 1.9 0 3.356.944 4.115 2.721l-1.306.547c-.471-1.367-1.49-1.983-2.823-1.983-2.14 0-3.117 1.627-3.117 3.623 0 2.051.93 3.706 3.117 3.706 1.593 0 2.687-.869 2.803-2.51l.034-.252H5.852v-1.19h3.684V13H8.367l-.13-1.483c-.553.998-1.62 1.613-2.987 1.613zm6.323-.13V6.17h1.374v1.245a2.023 2.023 0 0 1 1.928-1.374c.424 0 .868.137 1.183.438l-.643 1.162a1.404 1.404 0 0 0-.752-.226c-.827 0-1.73.725-1.73 2.502V13h-1.36zm7.964.13c-2.058 0-3.432-1.613-3.432-3.562 0-1.934 1.374-3.527 3.432-3.527s3.439 1.593 3.439 3.527c0 1.942-1.381 3.562-3.439 3.562zm0-1.224c1.333 0 1.969-1.087 1.969-2.338 0-1.244-.636-2.303-1.969-2.303-1.333 0-1.962 1.052-1.962 2.303 0 1.258.63 2.338 1.962 2.338zm7.171 1.224c-1.73 0-2.434-1.34-2.44-2.782V6.17h1.4v3.965c0 1.011.493 1.688 1.436 1.688 1.012 0 1.662-.58 1.662-1.818V6.17h1.401V13h-1.401v-.916c-.506.725-1.306 1.046-2.058 1.046zm5.62 2.7V6.17h1.455v.958c.458-.725 1.279-1.087 2.113-1.087 1.873 0 2.918 1.64 2.918 3.548 0 1.914-1.045 3.54-2.939 3.54-.848 0-1.634-.361-2.092-1.086v3.787h-1.456zm3.219-3.985c1.244 0 1.839-.998 1.839-2.256 0-1.265-.595-2.242-1.84-2.242-1.236 0-1.893.964-1.893 2.242 0 1.271.657 2.256 1.894 2.256zm10.336 1.285c-1.408 0-2.495-.834-2.837-1.88l1.135-.499c.205.567.676 1.196 1.633 1.196.855 0 1.265-.478 1.265-.957 0-1.38-3.61-.478-3.61-2.905 0-1.367 1.156-2.044 2.468-2.044 1.142 0 2.024.547 2.53 1.463l-1.094.595c-.267-.486-.71-.937-1.483-.937-.657 0-1.067.315-1.067.738 0 1.251 3.644.479 3.644 3.022 0 1.51-1.279 2.208-2.584 2.208zM50.06 4.83v-1.49h1.476v1.49H50.06zM50.094 13V6.17h1.408V13h-1.408zm8.784-6.83v1.033l-3.965 4.608h3.958V13h-5.9v-.957l4.102-4.683h-3.896V6.17h5.7zm4.313 6.96c-2.255 0-3.37-1.64-3.37-3.514 0-1.832 1.053-3.575 3.254-3.575 2.345 0 3.097 1.88 3.097 3.35 0 .26-.027.54-.055.635h-4.805c.123 1.108.71 1.819 1.886 1.819.684 0 1.238-.205 1.764-.773l.97.855c-.751.82-1.613 1.203-2.74 1.203zM61.311 9h3.466a1.488 1.488 0 0 0-.04-.43c-.137-.773-.732-1.34-1.675-1.34-1.067 0-1.607.745-1.75 1.77z" id="Group-size"/></g></g></g></g></g></g></svg>
