<svg width="22" height="23" viewBox="0 0 22 23" xmlns="http://www.w3.org/2000/svg"><g fill="none" fill-rule="evenodd"><g transform="translate(-152 -5816)" fill="#FBB040" fill-rule="nonzero"><g id="Group-28" transform="translate(152 5816)"><g id="ic_wb_sunny_black_24px"><path d="M5.76 4.84l-1.8-1.79-1.41 1.41 1.79 1.79 1.42-1.41zM3 10.5H0v2h3v-2zm9-9.95h-2V3.5h2V.55zm7.45 3.91l-1.41-1.41-1.79 1.79 1.41 1.41 1.79-1.79zm-3.21 13.7l1.79 1.8 1.41-1.41-1.8-1.79-1.4 1.4zM19 10.5v2h3v-2h-3zm-8-5c-3.31 0-6 2.69-6 6s2.69 6 6 6 6-2.69 6-6-2.69-6-6-6zm-1 16.95h2V19.5h-2v2.95zm-7.45-3.91l1.41 1.41 1.79-1.8-1.41-1.41-1.79 1.8z" /></g></g></g></g></svg>
